<?xml version="1.0" encoding="UTF-8"?><svg id="Layer_1" xmlns="http://www.w3.org/2000/svg" viewBox="0 0 864.07 1061.49"><defs><style>.cls-1{fill:#fff;}.cls-2{fill:#27004b;}</style></defs><path class="cls-2" d="M861.31,740.13c1.1-8.99,2.93-23.87-.23-40.96,1.29-10.07,1.21-20.38-.25-31.44.07-3.62.06-8.83-.52-14.86,1.21-7.43,1.59-14.25,1.22-21.42-.31-5.25-1-9.97-1.69-14,1.5-6.51,2.29-12.84,2.42-19.3l.13-6.49-1.23-7.83c-.81-5.19-1.52-9.71-2.55-15.2.05-.4.25-2.01.25-2.01,1.04-8.65,2.59-21.62.79-36.85.33-2.75.53-5.15.63-7.48.49-7.38.14-14.76-1.07-22.5.49-2.27.9-4.57,1.25-7.03l.17-1.32c1.12-9.57.71-19.33-1.2-29.01.03-.22.21-1.61.21-1.61.08-.66.19-1.3.34-2.16l.07-.44c.84-5.01,2.25-13.39,2.27-24.73v-.13c-.08-6.09-.77-12.16-2.1-18.51.6-5.97.61-11.92.02-18.56l.24-5.39c.63-13.73,1.41-30.78-1.22-49.7.28-7.57.4-14.96.51-22.11v-.9c.16-10.38.3-20.18,1.03-29.59l.84-10.73-.86-3.95c.85-4.04,3.29-15.69,3.29-15.69l-3.55-15.7c-1.74-7.69-1.1-20.37-.43-33.79v-.11c.27-5.39.54-10.97.7-16.47l.09-3.09-.17-3.04c-.19-3.54.07-8.88.34-14.54v-.16c.36-7,.75-14.93.53-23.66l-.1-4.38-.62-4.31c-4.14-29.09-12.78-53.58-27.17-77.08l-3.78-6.17-4.9-5.34c-10.4-11.33-21.46-19.92-33.8-26.23-11.38-9.33-24.46-15.43-38.96-18.15l-1.37-.24c-18.16-2.97-35.56-3.35-48.68-3.35-5.02,0-10.05.06-14.76.12h-.69c-3.98.06-8.1.11-12.1.11-7.52,0-13.55-.2-17.44-.56-3.41-.39-6.9-.59-10.38-.59-5.58,0-11.05.49-16.66,1.5-4.06-.47-7.99-.71-11.97-.71-6.1,0-11.92.53-18.27,1.65-3.82-.08-10.38-.84-15.31-1.41-2.45-.28-4.8-.55-7.63-.84l-2.78-.22c-2.02-.12-3.94-.17-5.89-.17-8.46,0-15.58,1.04-20.57,1.96-6.01-1.21-12.17-1.82-18.34-1.82-2.73,0-5.5.12-8.26.37-15.22.9-34.09,2.01-51.71,2.21-6.41-.96-12.41-1.42-18.32-1.42-5.27,0-10.36.35-15.54,1.08-1.16-.16-2.4-.33-3.44-.48-6.87-.99-16.27-2.34-27.19-2.34-3.48,0-6.78.13-10.07.39-1.55-.05-3.1-.07-4.61-.07-11.39,0-21.3,1.31-29.26,2.37-1.87.25-4.26.57-6.24.78l-5.57-1.96-12.15-.41-2.47-.04c-4.75,0-9.56.4-14.34,1.18-2.21-.47-4.36-.87-6.5-1.21l-12.02-1.9-11.99,1.94s-.82.11-2.8.11c-3,0-6.45-.21-10.43-.45l-1.04-.06c-5.99-.36-12.79-.76-20.44-.76-4.82,0-9.55.17-14.06.51l-4.28.32s-2.49.47-3.85.73c-2.89-.27-5.85-.4-8.8-.4-5.75,0-10.72.49-14.57.97l-.99-.15-3.55-.2c-10.09-.56-19.07-.83-27.47-.83-41.89,0-75.46,6.87-105.66,21.63l-5.09,2.5-4.68,3.23c-20.17,13.96-30.41,30.58-36.54,40.51l-.84,1.38c-.35.58-.82,1.35-1.07,1.74l-10.14,12.26-4.19,15.7c-5.46,20.5-8.13,48.32-6.98,72.73-.71,10.42-.07,19.6.41,26.33l.13,1.75c.1,1.31.22,2.92.23,3.71l-.25,3.34.09,3.55c.06,2.96.26,5.9.6,8.94-1.08,7.48-1.08,13.84-.91,19.15-1.87,12.19-3.33,26.82-.64,43.57-.02,1.08-.05,2.76-.05,2.77-.13,6.98-.27,14.85.27,23.48-2.12,11.94-1.6,24.1,1.54,36.18-.29,6.09-.78,12.77-1.25,19.29-1.48,20.63-3.02,41.97-.91,63.95l.57,5.94,1.51,5.75c.49,2.68-.33,13.84-.64,18.05v.1c-.73,9.89-1.63,22.19-.84,35.53.37,24.09-.05,47.69-.5,72.68l-.05,2.68c-.16,8.83-.32,17.95-.44,27.27v1.88c.13,7.54,1.07,13.95,1.86,18.39-.95,8.9-1.53,19.62.57,32.34.13,1.3.35,3.42.49,4.71-1.99,12.57-1.2,23.08-.66,29.18-.17,1.28-.36,2.62-.57,4.07l-.13.92c-1,6.88-2.25,15.44-2.61,25.49-.36,7.25.15,14.71,1.54,22.77-.56,8.44-.2,16.34,1.09,24.09.04,1.36-.05,4.59-.29,9.72-.54,11.95-1.22,26.82,2.19,43.27l.77,3.98.59,1.8.02.15c1.37,8.99,4.55,29.93,20.63,49.67,8.07,14.4,18.93,25.59,32.28,33.27,7.97,7.36,16.46,12.92,25.92,16.99.68.31,1.34.59,1.97.86,5.62,3.4,11.63,6.1,17.87,8.03l7.99,2.47,6.04.49c3.07.52,9.66,1.6,17.67,1.6,2.57,0,5.07-.11,7.87-.34l2.46-.25s2.69-.3,3.12-.34l6.37,1.06,7.77-.31c10.34-.41,20.67-1.09,32.41-2.14,8.21,2.26,16.2,3.35,24.35,3.35,7.59,0,15.12-.99,22.4-2.96,1.38.03,2.81.04,4.32.04,2.09,0,4.2-.03,6.46-.06,3.81.26,7.58.39,11.23.39,2.92,0,5.86-.08,8.77-.25,6.81,1.52,13.79,2.28,20.75,2.28h2.06c9.06,0,18.15-.5,26.17-.95h.1c2.58-.15,5.17-.29,7.57-.41l1.14.11c3.76.35,8.92.83,15.14.83,4.94,0,9.86-.32,14.62-.96,2.53.24,5.09.36,7.62.36,2.75,0,5.53-.14,8.29-.42,4.78.61,9.74.91,14.75.91,6.36,0,11.92-.48,16.15-.87,4.84.78,9.77,1.17,14.67,1.17s9.23-.34,13.93-1.02c4.03.5,8.14.75,12.23.75s7.77-.22,11.79-.67c2.99.22,6.06.33,9.12.33,6.93,0,12.97-.56,17.14-1.04,13.04,1.43,26.64,2.16,40.45,2.16,9.37,0,19.09-.33,28.89-.99,3.11.36,5.81.6,8.44.73l7.05.36,6.99-.95c1.46-.2,2.94-.42,4.5-.69,2.91.12,5.92.19,8.96.19,8.75,0,17.93-.48,28.8-1.5,5.62.96,12.32,1.89,20.06,1.89,3.72,0,7.6-.23,10.93-.66,1.74-.19,3.5-.44,5.24-.74,6.95,1.17,13.42,1.74,19.74,1.74,3.47,0,6.96-.17,10.39-.51,1.89-.16,3.81-.37,5.81-.64,6.92,1.52,13.62,2.27,20.43,2.27,3.78,0,7.36-.23,11.68-.75,29.22-3.84,52.63-14.96,71.67-25.34l3.13-1.71,2.98-2.01c6.89-4.65,13.02-10.3,18.22-16.8,16-14.27,23.38-31.74,27.54-43.96,1.54-2.71,2.9-5.34,4.14-8.03l2.06-4.49,1.47-4.76c8.37-27.31,5.97-52.49,4.58-66.3.16-4.98-.08-9.88-.73-14.94l.13-.82.57-4.77Z"/><path class="cls-1" d="M713.87,900.16c-7.94,0-14.53-1.7-18.86-3.02-2.77.54-6.37,1.22-10.59,1.54-2.37.25-4.78.37-7.19.37-8.03,0-14.72-1.35-19.6-2.34-.2-.04-.4-.08-.6-.12-2.47.68-5.39,1.31-8.69,1.67-2.28.29-4.64.44-7.03.44-6.54,0-12.42-1.07-17.15-1.92-.51-.09-1.01-.19-1.5-.28-8.9.93-19.59,1.81-30.2,1.81-3.83,0-7.58-.11-11.22-.36-.12.03-.25.05-.38.07-2.07.4-4.22.79-6.57,1.11l-3.75.51-3.78-.19c-2.84-.14-5.48-.44-8.09-.77-.39-.05-.78-.1-1.18-.15-10.2.76-20.23,1.14-29.84,1.14-13.99,0-27.6-.81-40.55-2.41-5.07.66-10.72,1.29-17.04,1.29-3.37,0-6.63-.18-9.8-.55-3.27.5-6.96.88-11.1.88s-8.45-.41-12.58-1.24c-3.49.75-8.13,1.51-13.58,1.51-4.33,0-8.66-.49-12.87-1.46-1.27.08-2.75.22-4.2.36-3.81.36-8.55.8-13.75.8s-9.88-.42-14.46-1.28c-2.58.47-5.46.79-8.57.79-2.75,0-5.49-.24-8.19-.73-4.46.89-9.11,1.33-14.05,1.33-4.6,0-8.65-.38-11.9-.68-1.39-.13-2.76-.31-4.1-.32-3.01.14-6.41.33-9.8.52-7.98.45-16.24.9-24.31.9h-2c-7.63,0-13.64-1.4-17.7-2.64-3.9.41-7.87.61-11.88.61-3.33,0-6.76-.14-10.25-.42h-.15c-2.47.05-4.9.09-7.29.09-2.69,0-5.76-.04-9.1-.24-.12.05-1.37.51-1.37.51l-1.02.32c-4.9,1.54-10.02,2.33-15.23,2.33-8.73,0-15.83-2.18-20.59-3.85-14.31,1.38-25.99,2.21-37.56,2.66l-4.18.17-4.12-.69c-1.89-.32-2.89-.36-3.62-.36-1.69,0-4.22.27-7.72.64l-2.08.21c-1.49.12-3,.18-4.5.18-5.4,0-9.92-.78-12.62-1.25l-.65-.11-3.73-.3-4.29-1.33c-5.6-1.73-9.72-4.22-12.11-5.83-1.12-.43-2.46-.97-3.95-1.66-9.17-3.87-15.33-9.52-19.24-13.54-10.2-4.86-18.26-13.09-24.06-24.6-11.78-13-14.02-27.68-15.19-35.31-.16-1.08-.28-2.2-.56-3.31l-.7-2.12-.36-1.88c-2.63-12.65-2.08-24.65-1.59-35.24.28-6.08.57-12.37,0-15.99-1.6-8.87-.94-16.28-.54-20.75.01-.13.03-.26.03-.39-.91-4.58-2.24-11.33-1.84-19.29.3-8.49,1.35-15.76,2.29-22.18.51-3.49.96-6.6,1.24-9.51-.07-.76-.13-1.5-.2-2.21-.58-6.5-1.35-15.22,1-25.92-.07-1.17-.3-3.2-.47-4.75-.22-1.97-.43-3.95-.6-5.91-2.04-11.15-.93-20.68-.09-27.85.05-.43.11-.86.15-1.3-.05-.25-.1-.49-.14-.74-.83-4.25-1.97-10.06-2.08-16.96v-1.19c.12-9.66.3-19.3.47-28.93.47-25.81.9-50.22.5-75.12-.73-11.38.07-22.22.77-31.83.82-11.17,1.59-21.72-.39-29.23l-.82-3.11-.31-3.2c-1.83-19.12-.39-39.04,1-58.31.67-9.23,1.3-18.02,1.51-25.96-1.72-5.23-4.35-14.61-2.17-26.29.2-1.13.44-2.28.71-3.45-.84-8.75-.68-17.26-.55-24.96.04-2.14.09-4.22.09-6.23-2.98-15.1-.92-28.51.7-38.7-.01-.47-.04-.94-.06-1.41-.17-4.54-.43-11.29,1.3-19.16-.47-2.74-.95-6.22-1.04-10.27l-.05-1.95.14-1.94c.18-2.27-.11-6.31-.37-10.22-.47-6.65-1.03-14.66-.24-23.39-1.22-20.84,1.04-46.65,5.75-64.31l2.24-8.4,5.56-6.72c1.23-1.48,2.81-4.04,4.48-6.75,5-8.1,12.55-20.35,26.71-30.15l2.51-1.74,2.74-1.34c25.2-12.32,53.85-18.05,90.19-18.05,7.71,0,16.05.25,25.52.78l1.91.11,4.36.65c.53-.07,1.08-.16,1.64-.24,3.56-.48,8-1.09,13.16-1.09,3.53,0,6.98.3,10.29.89,1.56-.38,3.14-.74,4.72-1.04l2.26-.43,2.29-.17c3.84-.29,7.65-.41,11.43-.41,6.64,0,12.96.38,18.53.71,4.79.29,9.32.56,13.38.56,3.31,0,6.06-.19,8.4-.56l6.45-1.04,6.45,1.02c4.55.72,8.46,1.72,11.6,2.53,3.83-1.07,8.88-2.07,14.74-2.07l1.75.03,6.27.21,5.91,2.08c.22.08,1.1.33,3.37.33,3.68,0,8.61-.66,13.85-1.35,7.26-.96,15.48-2.05,24.52-2.05,1.84,0,3.67.05,5.46.14,3-.31,6.05-.46,9.22-.46,8.41,0,16.06,1.1,22.22,1.98,3.58.51,6.98,1,9.49,1.12,4.84-.92,9.6-1.37,14.44-1.37,5.78,0,11.05.65,15.67,1.44,19.09-.1,38.35-1.23,57.03-2.33,1.86-.18,3.73-.27,5.59-.27,6,0,11.87.91,17.53,2.73.39-.09.78-.18,1.17-.26,5.1-1.1,12.08-2.6,20.21-2.6,1.29,0,2.56.04,3.85.11l1.8.15c2.11.22,4.36.48,6.71.75,6.65.76,14.18,1.63,19.86,1.63,2.51,0,3.54-.17,3.58-.18,5.17-1.03,9.61-1.48,14.08-1.48,4.81,0,9.19.54,13.14,1.27,3.87-1,9.2-2.06,15.49-2.06,2.09,0,4.23.11,6.44.37,5.38.52,12.16.79,21.37.79,4.39,0,8.81-.06,13.23-.11,4.77-.06,9.56-.12,14.33-.12,11.8,0,27.34.33,43.01,2.89l.94.17c12.53,2.35,20.82,8.74,25.58,13.16,10.07,4.52,18.89,11.09,27.46,20.42l2.62,2.86,2.02,3.3c11.85,19.36,18.99,39.69,22.45,63.96l.33,2.3.05,2.32c.18,7.48-.16,14.47-.49,21.23-.32,6.61-.63,12.85-.34,18.24l.09,1.64-.05,1.64c-.15,5.29-.41,10.62-.68,15.95-.79,15.78-1.53,30.7,1.24,42.97l1.9,8.4-1.77,8.43c-.65,3.1-1.38,6.59-1.39,7.62l1.24,5.69-.45,5.67c-.82,10.57-.97,20.98-1.12,32.02-.12,8.08-.24,16.39-.62,25.14,2.71,16.88,2,32.46,1.36,46.36l-.28,6.28-.16.66c.52,4.51,1.24,11.6-.42,20.17,1.14,4.22,2.59,10.16,2.68,17.29-.02,8.02-1.05,14.21-1.8,18.74-.23,1.37-.47,2.73-.64,4.13-.37,2.89-.9,6.97-.77,8.22l.1.33c1,4.15,2.85,11.88,1.64,22.19l-.12.92c-.57,3.99-1.52,7.48-2.39,10.24,1.15,5.06,2.6,12.53,1.99,21.47-.16,3.86-.64,7.17-1.04,9.75,2.18,12.81.82,24.11-.22,32.76-.35,2.86-.68,5.6-.8,7.8,1.47,7.18,2.26,12.23,3.29,18.82l.76,4.81-.07,3.47c-.16,8.11-2.08,14.59-3.23,18.48.18,1.04.53,3,.79,4.41.66,3.63,1.48,8.14,1.77,13.08.4,7.71-.78,14-1.66,18.35,1.05,6.93,1.01,12.8.84,17.88,1.38,9.16,1.99,19.15-.3,30.54,3.76,13.81,2.18,26.85,1.09,35.74l-.43,3.72-.13.83c-.24,1.55-.53,3.16-.89,4.88.76,3.83,1.6,9.44,1.14,16.17,1.59,15.62,3.29,34.81-2.99,55.31l-.78,2.54-1.11,2.42c-1.52,3.29-3.07,5.9-4.21,7.8l-.16.27-.48,1.43c-2.55,7.65-7.57,22.66-20.65,32.97-2.76,3.91-6.69,8.27-12.28,12.05l-1.6,1.08-1.7.93c-16.19,8.82-35.9,18.25-59.4,21.34-2.71.33-4.92.45-7.09.45Z"/><path class="cls-2" d="M201.6,77.19c8.81,2.76,19.53-2.22,26.86-.09,6.18,2.49,12.09-.25,18.22-1.41,18.85-1.42,36.69,2.88,55.2-.11,6.88,1.09,13.37,3.82,20.36,3.93,4.46-.27,8.01-3.12,12.75-2.96,20.22,7.12,41.45-2.66,61.88-.42,15.02-2.6,29.74,3.44,44.69,2.34,7.65-1.96,13.35-1.43,21.54.19,21.53.03,42.5-1.19,64.13-2.47,3.18-.41,6.33.08,9.23,1.4,10.62,4.89,22.48-2.28,33.3-1.63,12.62,1.32,30.73,4.14,42.85,1.53,5.49-1.09,9.32-.61,15.62.94,7.62,2.1,12.65-3.11,20.43-2.22,29.24,2.88,60.73-1.6,89.98,3.18,6.15,1.15,7.93,8.02,14.36,9.44,6.37,2.4,11.38,6.38,16.3,11.74,9.69,15.83,14.5,31.34,17,48.83.32,13.29-1.53,27.05-.78,40.66-.64,22.81-3.56,46.26,1.53,68.76-1.79,8.51-3.27,15.16-1.33,24.03-1.65,21.37-.84,41.1-2.04,62.73,3.01,14.91,2.14,29.48,1.48,44.28-2.08,8.15,2.08,14.26-.93,22.02-2.19,7.84,2.71,15.26,2.81,22.46-.02,6.32-1.47,11.79-2.17,17.69-.88,6.72-1.71,13.36-.32,20.37.69,3.32,1.78,6.21,1.29,10.41-.65,4.57-3.67,9.9-3.48,14.46-.05,6.3,3.44,12.85,2.75,20.6-.12,4.87-1.68,9.77-1.43,14.6,4.01,14.02-1.31,27.65-.67,42.04,1.94,9,2.68,13.94,3.98,22.19-.11,5.39-2.92,10.15-3.24,15.63-.63,8.31,2.24,16.78,2.62,23.42.29,5.59-2.27,11.49-2.24,17.44,1.86,6.92,1.49,11.74,1.23,18.99,1.4,7.91,2.16,14.87-.05,22.96-.96,4.72-.36,9.53.85,14.13,2.64,7.67.84,17.62,0,25.28-.31,2.07-.84,4.35-1.33,6.32-2.03,7.75,2.57,12.65.9,20.35,1.46,14.54,3.41,29.6-1.02,44.05-1.75,3.79-4.74,7.29-5.9,11.93-2.95,8.74-4.93,15.88-11.6,17.44-3.03,2.02-2.72,6.29-6.31,8.72-14.32,7.8-28.9,14.58-45.24,16.73-6.21.75-11.51-2.72-16.15-3.1-6.36-1.11-12.63,1.53-18.78,1.88-10.09,1.27-18.94-3.61-28.81-2.72-2.84.84-5.42,2.2-8.36,2.43-5.24.87-14.43-2.03-20.61-2.31-12.4,1.4-26.85,2.68-39.36,1.79-5.67-.68-9.41.76-14.77,1.49-4.53-.23-8.21-1.24-12.9-.97-22.91,1.78-46.14,1.63-68.77-1.63-9.28,1.18-18.11,2.77-27.11.47-7.18,1.38-12.34,2.68-19.89-.25-7.54-1.38-13.24,3.7-21.53,1.46-1.33-.33-2.93-.6-4.26-.89-11.69-.67-24.5,3.93-35.68-1.56-3.42-.96-7.14,3.4-11.38,1.93-3.71-.72-7.33-1.54-11-.56-8.69,3.18-18.2.16-26.87.5-11.62.52-23.71,1.49-34.3,1.38-7.43.11-9.03-3.29-17.07-3.16-6.94,1.28-14.07,1.43-21.67.69-8.46.13-16.43.45-23.96-1.11-3.84-.53-5.47,2.51-8.68,3.71-6.98,2.2-14.45-4.63-22-3.77-13.85,1.42-26.75,2.5-40.71,3.05-9.26-1.54-14.61-.86-23.44.08-3.54.29-7.31-.87-10.39-1.12-1.87-.58-2.04-1.79-7.28-4.04-1.38-.64-3.06-1.11-4.38-1.83-6.51-2.34-9.54-10.08-15.72-12.24-7.82-1.65-7.38-8.93-11.84-14.07-8.32-6.63-6.26-16.24-9.45-25.97-3.15-15.13,1.36-33.99-1.35-49.97-1.38-7.24,1.08-13.41-.18-19.52-.65-3.61-1.87-8.27-1.62-12.38.39-11.93,2.97-21.89,3.66-33.24-.45-8.33-1.81-13.94.08-21.07,1.63-7.68-.32-15.61-.74-23.37-2.02-8.27.1-16.36.64-24.96-.64-5.82-2.42-11.31-2.52-17.09.46-35.51,1.56-70.69.95-106.24-1.66-22.57,5.15-46.46-.91-69.46-2.46-25.58,2.49-57.23,2.75-83.51.07-6.63-3.93-10.99-2.88-16.16.49-2.98,1.78-6.29,1.75-9.76-1.86-11.5-.6-25.77-.9-36.74-2.77-9.78-1.02-19.65.51-29.32.9-6.28-1.16-13.26,1.43-19.56,1.86-5.57-.87-10.67-1-16.81.87-11.46-2.07-24.18-.35-35.78-1.37-16.11.15-39.58,4.25-54.96,8.26-9.98,11.74-21.62,23.09-29.47,29.55-14.45,63.61-14.97,95.55-13.2l.86.13ZM138.54,105.6c.58-.46-3.15-3.58-2.51,0h2.51ZM177.06,113.88c.27-1.24-.37-1.7-1.26-2.48-.89.78-1.52,1.24-1.26,2.48h2.51ZM131.85,132.1c-.09-.09-2.42-.09-2.51,0-.09.09-.09,2.4,0,2.48.09.09,2.42.09,2.51,0,.09-.09.09-2.4,0-2.48ZM443.31,144.53l-1.67-1.66c-.22,1.75-.09,1.87,1.67,1.66ZM434.93,178.49c-.92-.91-2.59.75-1.67,1.66.92.91,2.59-.75,1.67-1.66ZM340.74,243.93c-.54,0-.54.83,0,.83s.54-.83,0-.83ZM444.98,298.59c.53-.63-.27-2.32-.84-1.66-.53.63.27,2.32.84,1.66ZM115.1,312.68c.53-.63-.27-2.32-.84-1.66-.53.63.27,2.32.84,1.66ZM545.45,313.5c-.09-.09-2.42-.09-2.51,0s-.09,2.4,0,2.48c.09.09,2.42.09,2.51,0,.09-.09.09-2.4,0-2.48ZM614.11,316.82c.53-.63-.27-2.32-.84-1.66-.53.63.27,2.32.84,1.66ZM566.38,319.3c-.92-.91-2.59.75-1.67,1.66.92.91,2.59-.75,1.67-1.66ZM489.35,357.4c-.64-.53-2.35.27-1.67.83.64.53,2.35-.27,1.67-.83ZM90.82,376.45c.47-.47-.22-3.03-1.26-3.31l-2.09,1.24.84,2.07c.68-.1,2.35.16,2.51,0ZM472.61,396.33h-1.67v2.48h1.67v-2.48ZM494.38,413.73c-1.26-.26-1.72.37-2.51,1.24.79.88,1.25,1.51,2.51,1.24v-2.48ZM256.6,433.61h-2.51v1.66h2.51v-1.66ZM737.18,504.84c.51.5,2.9-.19,3.35-1.24-.45-1.05-2.84-1.74-3.35-1.24-.09.09-.09,2.4,0,2.48ZM330.28,516.44c.75-1.66-1.13-5.49-2.93-4.97-2.92.84-.33,5.98,2.93,4.97ZM342.83,511.47h-2.51v.41c1.41,1.74,2.92,2.02,2.51-.41ZM82.45,524.72h-3.35c-1.09,5.11,4.73,1.37,3.35,0ZM691.97,586.02c-.92-.91-2.59.75-1.67,1.66.92.91,2.59-.75,1.67-1.66ZM90.82,606.72h-1.67v2.48h1.67v-2.48ZM215.15,661.39c-.54,0-.54.83,0,.83s.54-.83,0-.83ZM707.04,663.05c-.09-.09-2.42-.09-2.51,0-.09.09-.09,2.4,0,2.48s2.42.09,2.51,0c.09-.09.09-2.4,0-2.48ZM238.18,695.35c-.64-.53-2.35.27-1.67.83.64.53,2.35-.27,1.67-.83ZM772.35,716.06c-1.26-.26-1.72.37-2.51,1.24.92,1.28,1.79,1.43,3.35,1.24l-.84-2.48ZM786.58,717.72c-4.45-.37-4.45,3.69,0,3.31v-3.31ZM652.62,725.17c-1.59-.24-2.75.91-2.51,2.48h2.51v-2.48ZM646.76,754.99v-2.48h-.42l-1.26,1.24,1.67,1.24ZM782.81,786.47c-1.69,1.3-1.69,2.01,0,3.31,1.69-1.3,1.69-2.01,0-3.31ZM352.88,811.32h-3.35c-.38,4.4,3.73,4.4,3.35,0Z"/><path class="cls-2" d="M76.46,1056.44c-5.97-3.36-10.57-8.17-13.78-14.44-3.21-6.27-4.82-13.61-4.82-22.01s1.61-15.73,4.82-21.96c3.21-6.22,7.81-11.03,13.78-14.38,5.98-3.37,12.94-5.05,20.91-5.05,10.03,0,18.69,2.76,25.96,8.26,1.15.92,1.95,1.83,2.41,2.75.46.92.69,2.07.69,3.45,0,1.99-.56,3.68-1.66,5.1-1.11,1.42-2.47,2.12-4.08,2.12-1.07,0-2.01-.13-2.82-.39-.8-.27-1.71-.75-2.7-1.44-3.06-1.99-5.9-3.42-8.5-4.3-2.6-.88-5.4-1.32-8.39-1.32-7.35,0-12.89,2.27-16.6,6.82-3.72,4.55-5.57,11.34-5.57,20.36,0,18.19,7.39,27.29,22.17,27.29,2.83,0,5.51-.44,8.04-1.32,2.53-.88,5.47-2.31,8.84-4.3,1.15-.69,2.11-1.16,2.87-1.44.76-.27,1.64-.39,2.64-.39,1.6,0,2.96.7,4.08,2.12,1.11,1.42,1.66,3.12,1.66,5.1,0,1.38-.25,2.55-.74,3.5-.5.95-1.28,1.85-2.36,2.69-7.28,5.5-15.93,8.26-25.96,8.26-7.96,0-14.93-1.68-20.91-5.05Z"/><path class="cls-2" d="M157.16,1056.39c-5.94-3.41-10.51-8.22-13.73-14.45-3.21-6.23-4.82-13.55-4.82-21.95s1.61-15.73,4.82-21.96c3.21-6.22,7.79-11.03,13.73-14.38,5.93-3.37,12.92-5.05,20.96-5.05s15.03,1.68,20.97,5.05c5.94,3.36,10.51,8.16,13.73,14.38,3.21,6.23,4.82,13.56,4.82,21.96s-1.61,15.72-4.82,21.95c-3.22,6.23-7.79,11.05-13.73,14.45-5.94,3.4-12.92,5.1-20.97,5.1s-15.03-1.7-20.96-5.1ZM194.03,1040.5c3.87-4.74,5.8-11.58,5.8-20.52s-1.91-15.77-5.74-20.47c-3.83-4.71-9.15-7.06-15.97-7.06s-12.12,2.35-15.91,7.06c-3.79,4.7-5.69,11.52-5.69,20.47s1.91,15.78,5.74,20.52c3.83,4.75,9.11,7.12,15.85,7.12s12.05-2.37,15.91-7.12Z"/><path class="cls-2" d="M238.09,1058.28c-1.46-1.46-2.18-3.51-2.18-6.19v-64.21c0-2.68.8-4.82,2.41-6.43,1.6-1.6,3.79-2.4,6.55-2.4s4.94.8,6.55,2.4c1.61,1.6,2.41,3.75,2.41,6.43v58.02h29.41c5.59,0,8.38,2.44,8.38,7.33s-2.8,7.23-8.38,7.23h-38.94c-2.68,0-4.75-.73-6.2-2.18Z"/><path class="cls-2" d="M309.65,1058.28c-1.46-1.46-2.18-3.51-2.18-6.19v-64.21c0-2.68.8-4.82,2.41-6.43,1.6-1.6,3.79-2.4,6.55-2.4s4.94.8,6.55,2.4c1.61,1.6,2.41,3.75,2.41,6.43v58.02h29.41c5.59,0,8.38,2.44,8.38,7.33s-2.8,7.23-8.38,7.23h-38.94c-2.68,0-4.75-.73-6.2-2.18Z"/><path class="cls-2" d="M381.22,1058.28c-1.46-1.46-2.18-3.51-2.18-6.19v-64.1c0-2.67.72-4.74,2.18-6.19,1.45-1.45,3.52-2.18,6.2-2.18h40.67c5.67,0,8.5,2.29,8.5,6.88s-2.84,6.99-8.5,6.99h-31.59v18.92h29.29c5.67,0,8.5,2.33,8.5,6.99s-2.84,6.88-8.5,6.88h-29.29v20.3h31.59c5.67,0,8.5,2.33,8.5,6.99s-2.84,6.88-8.5,6.88h-40.67c-2.68,0-4.75-.73-6.2-2.18Z"/><path class="cls-2" d="M470.36,1056.44c-5.97-3.36-10.57-8.17-13.78-14.44-3.21-6.27-4.82-13.61-4.82-22.01s1.61-15.73,4.82-21.96c3.21-6.22,7.81-11.03,13.78-14.38,5.98-3.37,12.94-5.05,20.91-5.05,10.03,0,18.69,2.76,25.96,8.26,1.15.92,1.95,1.83,2.41,2.75.46.92.69,2.07.69,3.45,0,1.99-.56,3.68-1.66,5.1-1.11,1.42-2.47,2.12-4.08,2.12-1.07,0-2.01-.13-2.82-.39-.8-.27-1.71-.75-2.7-1.44-3.06-1.99-5.9-3.42-8.5-4.3-2.6-.88-5.4-1.32-8.39-1.32-7.35,0-12.89,2.27-16.6,6.82-3.72,4.55-5.57,11.34-5.57,20.36,0,18.19,7.39,27.29,22.17,27.29,2.83,0,5.51-.44,8.04-1.32,2.53-.88,5.47-2.31,8.84-4.3,1.15-.69,2.11-1.16,2.87-1.44.76-.27,1.64-.39,2.64-.39,1.6,0,2.96.7,4.08,2.12,1.11,1.42,1.66,3.12,1.66,5.1,0,1.38-.25,2.55-.74,3.5-.5.95-1.28,1.85-2.36,2.69-7.28,5.5-15.93,8.26-25.96,8.26-7.96,0-14.93-1.68-20.91-5.05Z"/><path class="cls-2" d="M558.86,1058.62c-1.65-1.6-2.47-3.75-2.47-6.43v-58.02h-18.61c-5.67,0-8.5-2.44-8.5-7.33s2.83-7.23,8.5-7.23h55.14c5.67,0,8.5,2.41,8.5,7.23s-2.84,7.33-8.5,7.33h-18.61v58.02c0,2.68-.81,4.82-2.41,6.43-1.61,1.6-3.79,2.4-6.55,2.4s-4.85-.8-6.49-2.4Z"/><path class="cls-2" d="M618.43,1058.73c-1.61-1.6-2.41-3.78-2.41-6.54v-64.32c0-2.68.8-4.82,2.41-6.43,1.6-1.6,3.79-2.4,6.55-2.4s4.94.8,6.55,2.4c1.61,1.6,2.41,3.75,2.41,6.43v64.32c0,2.76-.8,4.93-2.41,6.54-1.61,1.6-3.79,2.41-6.55,2.41s-4.94-.81-6.55-2.41Z"/><path class="cls-2" d="M718.48,980.13c1.3-.8,2.76-1.2,4.36-1.2,2.3,0,4.37.77,6.21,2.29,1.84,1.53,2.76,3.41,2.76,5.62,0,1.14-.27,2.29-.81,3.44l-31.01,65.36c-.85,1.76-2.11,3.11-3.8,4.07-1.68.95-3.52,1.44-5.51,1.44s-3.83-.48-5.51-1.44c-1.68-.95-2.95-2.3-3.79-4.07l-31.02-65.36c-.54-1.06-.8-2.18-.8-3.33,0-2.29.95-4.2,2.87-5.73,1.91-1.53,4.06-2.29,6.43-2.29,1.61,0,3.08.4,4.43,1.2,1.34.81,2.35,2.01,3.04,3.61l24.58,53.67,24.58-53.67c.69-1.6,1.68-2.81,2.99-3.61Z"/><path class="cls-2" d="M749.61,1058.28c-1.46-1.46-2.18-3.51-2.18-6.19v-64.1c0-2.67.72-4.74,2.18-6.19,1.45-1.45,3.52-2.18,6.2-2.18h40.67c5.67,0,8.5,2.29,8.5,6.88s-2.84,6.99-8.5,6.99h-31.59v18.92h29.29c5.67,0,8.5,2.33,8.5,6.99s-2.84,6.88-8.5,6.88h-29.29v20.3h31.59c5.67,0,8.5,2.33,8.5,6.99s-2.84,6.88-8.5,6.88h-40.67c-2.68,0-4.75-.73-6.2-2.18Z"/><path class="cls-1" d="M287.92,439.91c50.42,0,94.11-21.26,122.4-55.74,4.68-5.71,3.12-14.29-3.16-18.17l-23.17-14.31c-5.16-3.19-11.83-2.09-15.76,2.53-18.95,22.31-47.57,36.08-80.32,36.08-58.65,0-103.51-44.85-103.51-104.37s44.85-104.36,103.51-104.36c32.75,0,61.37,13.77,80.32,36.08,3.93,4.62,10.6,5.72,15.76,2.53l23.17-14.31c6.28-3.88,7.84-12.46,3.16-18.17-28.29-34.49-71.99-55.74-122.41-55.74-88.85,0-156.13,66.42-156.13,153.96s67.28,153.98,156.13,153.98Z"/><path class="cls-1" d="M712.38,137.14h-21.14c-8.22,0-14.87,6.66-14.87,14.88v94.04c0,8.22-6.66,14.87-14.87,14.87h-116.02c-8.22,0-14.87-6.66-14.87-14.87v-94.04c0-8.22-6.66-14.88-14.88-14.88h-21.57c-8.22,0-14.87,6.66-14.87,14.88v267.83c0,8.22,6.66,14.87,14.87,14.87h21.57c8.22,0,14.88-6.66,14.88-14.87v-95.74c0-8.22,6.66-14.87,14.87-14.87h116.02c8.22,0,14.87,6.66,14.87,14.87v95.74c0,8.22,6.66,14.87,14.87,14.87h21.14c8.22,0,14.87-6.66,14.87-14.87V152.02c0-8.22-6.66-14.88-14.87-14.88Z"/><path class="cls-1" d="M713.51,494.17h-23.83c-7.59,0-13.74,6.15-13.74,13.74v168.27c0,34.86-22.33,62.38-54.64,69.41-45.37,9.87-87.69-26.97-87.69-73.4v-164.28c0-7.59-6.15-13.74-13.74-13.74h-23.4c-7.59,0-13.74,6.15-13.74,13.74v169.12c0,68.59,52.61,119.91,122.05,119.91s122.48-51.32,122.48-119.91v-169.12c0-7.59-6.15-13.74-13.74-13.74Z"/><path class="cls-1" d="M258.1,493.48c3.75-.87,7.83-1.73,10.35-2.86-17.67,1.67-32.07,6.41-47.46,14.57,10.12-5.82,21.18-9.85,32.39-13.16-28.1,7.7-57.43,24.6-76.9,50-7.26,8.7-17.92,14.64-21.95,31.44,19.45-37.36,55.46-64.94,95.45-76.59,1.09-1.13,4.37-2.59,8.13-3.41Z"/><path class="cls-1" d="M302.63,491.32c4.01.41,8.08.82,12.26,1.25-3.73-.65-7.97-.98-12.26-1.25Z"/><path class="cls-1" d="M158.23,593.37c-8.6,18.97-9.38,41.79-7.32,62.17-1.65-18.93.53-37.66,5.83-55.07.55-2.38,1.05-4.73,1.48-7.11Z"/><path class="cls-1" d="M203.57,536.29c-14.05,9.69-26.53,24.07-34.53,40.43,8.6-16.38,20.76-30.42,34.53-40.43Z"/><path class="cls-1" d="M252.74,739.52c5.87,2.46,10.74,5.17,16.04,6.88,1.05-.11,3.13-.98,5.18-.56,4.17.64,8.24,1.06,12.21,1.32-14.84-1.24-28.87-5.25-41.35-11.44,1.05.87,2.03,1.77,2.9,2.71,2.08.18,4,.99,5.02,1.09Z"/><path class="cls-1" d="M153.22,710.54c1.24,2.4,2.53,4.79,3.95,7.21-1.36-2.38-2.67-4.79-3.95-7.21Z"/><path class="cls-1" d="M414.87,565.11c-11.76-19.52-27.32-36.01-44.56-48.79-17.24-12.9-36.23-21.74-54.71-28.16,3.71,1.83,8.23,3.64,13.1,5.45,4.82,2,9.89,4.49,14.94,6.74,4.84,2.79,9.7,5.44,13.87,8.34,4.06,3.12,7.69,6.03,10.33,8.83-1.69-.57-3.47-.97-5.18-1.45,2.05,2.91,10.51,10.21,14.2,14.55-2.25-1.18-4.33-3.05-6.27-5.2q1.96,2.08,3.92,4.16c-8.51-6.24-21.34-15.23-32.97-20.21-5.8-2.35-11.06-4.04-14.63-4.81-3.66-.46-5.59-.12-4.93,1.44,1.33,3.08,10.81,6.81,21.85,12.98,11.12,5.96,23.8,14.62,32.33,24.06-9.01-6.06-18.79-12.1-28.98-17.83-10.44-5.14-21.53-9.69-32.46-11.06,4.82,2.38,7.28,4.22,13.98,7.15l6.36,2.61,6.05,3.24c4.11,1.96,7.83,4.62,11.58,7.12,7.72,4.53,14.83,8.9,18.96,16.3.55.56,1.14,1.05,1.61,1.68,1.21.99,2.69,1.62,3.82,2.75,4.7,5.35,4.15,7.65,9.92,13.05-.22.25-.61.18-1.06-.04,1.96,1.5,3.21,5.13,5.42,6.86-.45.45-.91.9-1.04,1.62,8.04,14.79,13.11,31.13,14.37,47.92.27,5,.73,9.9.31,14.78,0,2.07.13,4.18.01,6.31-.26,2.12-.53,4.27-.81,6.46-.23,2.18.94,4.33,1.03,5.41-2.1,5.49-3.8,10.93-6.6,17.03-.04,1.07-.52,3.21-.71,5.36-.99.95-1.93,1.99-2.83,3.09l-2.52,5.69-3.07,5.37c-1.87,3.68-4.3,6.98-6.67,10.3l.13.07c-2,3.57-5.3,6.72-8.25,10.29-3.28,3.26-6.72,6.57-10.21,9.5-3.08,2.56-6.09,4.91-8.83,7.1-2.98,1.56-5.76,3.4-8.83,4.74.71.2,1.14.69,1.56,1.18.8-.87,1.9-1.65,3.01-2.39-1.69,1.46-3.18,2.85-4.32,4.17-3.41.31-6.7,1.55-10.47,2.33-4.32,1.71-8.59,3.53-13.13,4.58-4.42,1.47-9.03,2.12-13.62,2.93-.7.59.05,1.04.2,1.46-4.14.37-8.41-.33-12.52-.4-3.71.06-7.44-.27-11.16-.34-3.72-.35-7.43-1.09-11.15-1.57-1.81.12-3.58-.1-5.43.07-.84-.84-1.97-1.59-3.32-2.26-2.75-.58-5.35-1.65-7.97-2.68-7.19-2.33-19.79-7.75-31.53-16-1.16-.25-2.11-.42-2.46-.82-3.06-2.78-6.19-5.27-8.82-8.06-10.13-8.73-17.25-19.09-21.3-24.79-2.4-3.46-2.65,1.59-1.3,7.18.62,2.88,1.27,5.88,1.79,8.3.63,2.24.9,3.81.21,3.73-11.71-4.18-20.54-21.57-29.53-46.52-2.04-7.09-.33,5.47-1.1,6.01-1-.88-1.84-2.15-2.65-3.65-1.17-5.24-2.71-10.43-3.24-15.8l.18,2.29c.46,4.72,1.77,9.18,2.92,13.24-.79-1.51-1.55-3.22-2.39-5.03-1.83-3.76-3.09-8.03-4.37-11.68,1.15,20.74,7.31,41.54,18.46,59.38,11.01,17.91,26.28,33.14,44.05,44.18-13.12-8.74-23.94-20.19-31.64-32.5,3.88,5.5,8.64,10.28,13.21,15.26,5.04,4.47,9.92,9.22,15.56,13.03,10.94,8.03,23.16,14.64,36.32,18.89,28.32,8.46,58.84,7.04,86.38-2.22-2.14,1.39-4.75,2.6-7.6,3.8l7.34-2.43,7.1-3.05c4.81-1.86,9.28-4.42,13.8-6.87,2.64-1.69,5.01-3.8,7.37-5.86-.9.9-2.7,2.69-4.15,4.13,27.3-16.38,48.77-41.7,59.91-70.36-.81,2.32-.87,3.59-.87,4.83.57-1.56,1.33-3.06,1.8-4.68,1.21-4.38,2.41-8.72,3.56-12.88-.87,4.3-2.27,8.59-3.56,12.88-.47,1.78-1.23,3.46-1.82,5.19-.05,1.15-.3,2.36-1.6,4.3-1.33,4.05-3.26,7.65-5.04,10.96-1.75,3.33-3.48,6.29-5.49,8.46-13.97,17.01-27.84,33.26-45.34,41.92-4.03,2.01-3.35.89-1.57-.62l-3.21,1.73c-2.99,2.02-5.95,4.23-9.18,5.97-3.27,1.67-6.62,3.25-10.07,4.71-3.94,1.34-7.98,2.37-11.95,3.54-3.99,1.11-8.12,1.59-12.15,2.39-1.56.32-3.12.72-4.72.82.79-.13,1.6-.19,2.37-.41-20.9,2.79-42.01.31-61.33-6.25-11.81-3.08-22.86-8.55-33.45-14.67,18.48,12.66,40.85,19.98,63.07,23.03-15.08.45-31.71-2.95-47.17-9.7l7.48,3.37c2.56.97,5.19,1.77,7.79,2.66,5.17,1.93,10.57,3.06,15.97,4.2,4.04,1.29,8.21,1.87,12.05,2.64,3.84.75,7.37,1.65,10.32,2.12-10.91-.78-19.92-2.11-28.46-3.45,18.2,4.72,37.69,6.12,57.17,3.47-20.97,3.32-44.63,3.43-64.6-4.6,2.43.54,4.91.82,7.43,1.14-32.96-8.59-62.08-28.04-81.69-54.52,3.97,8.03,11.5,16.64,20.55,23.8,8.78,7.58,19.05,13.45,27.4,19.57-33.27-15.53-60.45-46.99-72.37-83.48-12.28-36.57-9.86-76.83,3.71-111.35-11.29,23.74-17.23,50.02-16.32,77.05-.39-5.07-.47-10.92-.69-16.71-.35,13.43.76,26.42,3.87,39.46-4.62-18.8-6.28-38.33-4.96-57.71,1.88-14.64,1.2-18.37-.8-16.85-1.89,1.52-4.83,8.49-5.89,14.67-9.24,62.03,16.21,124.06,65.97,156.64,11.69,7.48,24.59,12.76,37.48,17.44,13.17,3.93,26.55,7.16,40.2,7.84,7.59,1.32,16.9,1.42,25.34,1.27,8.45-.63,16.07-1.5,20.38-2.94,45.74-14.01,85.25-49.09,103.88-95.99,8.84-20.69,13.01-44.15,11.17-67.36-1.9-23.2-9.25-45.89-20.85-65.48ZM144.99,681.17c-.42-1.43-.81-2.86-1.19-4.3.38,1.43.76,2.86,1.19,4.3ZM197.26,761.98c-26.67-19.33-46.12-48.27-54.96-77.11,2.72,8.94,6.56,17.44,10.91,25.67-6.71-13-10.77-25.87-13.12-41.12,1.94,5.2,4.7,16.63,7.08,18.83-.66-1.94-1.23-3.92-1.82-5.88.62,2.01,1.28,4.03,2.01,6.05-.06-.03-.12-.11-.19-.17,13.88,40.8,44.39,76.25,83.68,94.68-17.7-3.06-23.95-14.32-33.6-20.95Z"/><path class="cls-1" d="M210.92,709.85c1.53,1.63,3.07,3.27,4.58,4.89,2.85,3.43,6.45,5.91,9.38,8.43l.07-.13c-7.53-6.06-14.08-13.11-19.83-20.71.56.74,1.13,1.49,1.72,2.24,1.33,1.73,2.7,3.5,4.06,5.27Z"/><path class="cls-1" d="M205.09,702.28c-5.28-7.9-10.4-16.03-13.41-25.08.91,3.5,1.13,7.06,1.65,10.17,3.51,3.15,7.18,8.85,11.76,14.91Z"/><path class="cls-1" d="M205.13,702.34s-.03-.04-.04-.05c0,0,0,0,0,.01.01.01.02.03.03.04Z"/><path class="cls-1" d="M215.49,533c-12.2,6.93-23.5,17.01-32.61,29.15-6.87,9.63-11.75,20.51-15.74,31.51,5.06-12.33,11.6-23.93,19.81-34.17,8.34-10.13,17.96-19.01,28.53-26.49Z"/><path class="cls-1" d="M184.22,651.48c.44-.13.97-.83,1.47-.14-.19-3.93-.77-7.85-.38-11.82-.87,3.97-.86,7.95-1.09,11.96Z"/><path class="cls-1" d="M190.47,610.01c-.87,1.2-1.56,2.27-2.37,3.04.13,1.8.14,3.54.03,5.25.82-2.75,1.26-5.62,2.34-8.29Z"/><path class="cls-1" d="M210.09,573.16l4.31-5.37c1.46-1.77,3.18-3.3,4.72-4.97-1.38,1.23-2.77,2.47-4.19,3.73-1.31,1.38-2.54,2.89-3.84,4.36-.42.29-.66,1.17-.99,2.24Z"/></svg>