<svg width="865" height="1062" viewBox="0 0 865 1062" fill="none" xmlns="http://www.w3.org/2000/svg">
<g clip-path="url(#clip0_8_19)">
<path d="M861.31 740.13C862.41 731.14 864.24 716.26 861.08 699.17C862.37 689.1 862.29 678.79 860.83 667.73C860.9 664.11 860.89 658.9 860.31 652.87C861.52 645.44 861.9 638.62 861.53 631.45C861.22 626.2 860.53 621.48 859.84 617.45C861.34 610.94 862.13 604.61 862.26 598.15L862.39 591.66L861.16 583.83C860.35 578.64 859.64 574.12 858.61 568.63C858.66 568.23 858.86 566.62 858.86 566.62C859.9 557.97 861.45 545 859.65 529.77C859.98 527.02 860.18 524.62 860.28 522.29C860.77 514.91 860.42 507.53 859.21 499.79C859.7 497.52 860.11 495.22 860.46 492.76L860.63 491.44C861.75 481.87 861.34 472.11 859.43 462.43C859.46 462.21 859.64 460.82 859.64 460.82C859.72 460.16 859.83 459.52 859.98 458.66L860.05 458.22C860.89 453.21 862.3 444.83 862.32 433.49V433.36C862.24 427.27 861.55 421.2 860.22 414.85C860.82 408.88 860.83 402.93 860.24 396.29L860.48 390.9C861.11 377.17 861.89 360.12 859.26 341.2C859.54 333.63 859.66 326.24 859.77 319.09V318.19C859.93 307.81 860.07 298.01 860.8 288.6L861.64 277.87L860.78 273.92C861.63 269.88 864.07 258.23 864.07 258.23L860.52 242.53C858.78 234.84 859.42 222.16 860.09 208.74V208.63C860.36 203.24 860.63 197.66 860.79 192.16L860.88 189.07L860.71 186.03C860.52 182.49 860.78 177.15 861.05 171.49V171.33C861.41 164.33 861.8 156.4 861.58 147.67L861.48 143.29L860.86 138.98C856.72 109.89 848.08 85.4 833.69 61.9L829.91 55.73L825.01 50.39C814.61 39.06 803.55 30.47 791.21 24.16C779.83 14.83 766.75 8.72999 752.25 6.00999L750.88 5.76999C732.72 2.79999 715.32 2.41999 702.2 2.41999C697.18 2.41999 692.15 2.47999 687.44 2.53999H686.75C682.77 2.59999 678.65 2.64999 674.65 2.64999C667.13 2.64999 661.1 2.44999 657.21 2.08999C653.8 1.69999 650.31 1.49999 646.83 1.49999C641.25 1.49999 635.78 1.98999 630.17 2.99999C626.11 2.52999 622.18 2.28999 618.2 2.28999C612.1 2.28999 606.28 2.81999 599.93 3.93999C596.11 3.85999 589.55 3.09999 584.62 2.52999C582.17 2.24999 579.82 1.97999 576.99 1.68999L574.21 1.46999C572.19 1.34999 570.27 1.29999 568.32 1.29999C559.86 1.29999 552.74 2.33999 547.75 3.25999C541.74 2.04999 535.58 1.43999 529.41 1.43999C526.68 1.43999 523.91 1.55999 521.15 1.80999C505.93 2.70999 487.06 3.81999 469.44 4.01999C463.03 3.05999 457.03 2.59999 451.12 2.59999C445.85 2.59999 440.76 2.94999 435.58 3.67999C434.42 3.51999 433.18 3.34999 432.14 3.19999C425.27 2.20999 415.87 0.85999 404.95 0.85999C401.47 0.85999 398.17 0.98999 394.88 1.24999C393.33 1.19999 391.78 1.17999 390.27 1.17999C378.88 1.17999 368.97 2.48999 361.01 3.54999C359.14 3.79999 356.75 4.11999 354.77 4.32999L349.2 2.36999L337.05 1.95999L334.58 1.91999C329.83 1.91999 325.02 2.31999 320.24 3.09999C318.03 2.62999 315.88 2.22999 313.74 1.88999L301.72 -0.0100098L289.73 1.92999C289.73 1.92999 288.91 2.03999 286.93 2.03999C283.93 2.03999 280.48 1.82999 276.5 1.58999L275.46 1.52999C269.47 1.16999 262.67 0.76999 255.02 0.76999C250.2 0.76999 245.47 0.93999 240.96 1.27999L236.68 1.59999C236.68 1.59999 234.19 2.06999 232.83 2.32999C229.94 2.05999 226.98 1.92999 224.03 1.92999C218.28 1.92999 213.31 2.41999 209.46 2.89999L208.47 2.74999L204.92 2.54999C194.83 1.98999 185.85 1.71999 177.45 1.71999C135.56 1.71999 101.99 8.58999 71.79 23.35L66.7 25.85L62.02 29.08C41.85 43.04 31.61 59.66 25.48 69.59L24.64 70.97C24.29 71.55 23.82 72.32 23.57 72.71L13.43 84.97L9.23999 100.67C3.77999 121.17 1.10999 148.99 2.25999 173.4C1.54999 183.82 2.18999 193 2.66999 199.73L2.79999 201.48C2.89999 202.79 3.01999 204.4 3.02999 205.19L2.77999 208.53L2.86999 212.08C2.92999 215.04 3.12999 217.98 3.46999 221.02C2.38999 228.5 2.38999 234.86 2.55999 240.17C0.689989 252.36 -0.770011 266.99 1.91999 283.74C1.89999 284.82 1.86999 286.5 1.86999 286.51C1.73999 293.49 1.59999 301.36 2.13999 309.99C0.0199893 321.93 0.539989 334.09 3.67999 346.17C3.38999 352.26 2.89999 358.94 2.42999 365.46C0.949989 386.09 -0.590011 407.43 1.51999 429.41L2.08999 435.35L3.59999 441.1C4.08999 443.78 3.26999 454.94 2.95999 459.15V459.25C2.22999 469.14 1.32999 481.44 2.11999 494.78C2.48999 518.87 2.06999 542.47 1.61999 567.46L1.56999 570.14C1.40999 578.97 1.24999 588.09 1.12999 597.41V599.29C1.25999 606.83 2.19999 613.24 2.98999 617.68C2.03999 626.58 1.45999 637.3 3.55999 650.02C3.68999 651.32 3.90999 653.44 4.04999 654.73C2.05999 667.3 2.84999 677.81 3.38999 683.91C3.21999 685.19 3.02999 686.53 2.81999 687.98L2.68999 688.9C1.68999 695.78 0.439989 704.34 0.079989 714.39C-0.280011 721.64 0.229989 729.1 1.61999 737.16C1.05999 745.6 1.41999 753.5 2.70999 761.25C2.74999 762.61 2.65999 765.84 2.41999 770.97C1.87999 782.92 1.19999 797.79 4.60999 814.24L5.37999 818.22L5.96999 820.02L5.98999 820.17C7.35999 829.16 10.54 850.1 26.62 869.84C34.69 884.24 45.55 895.43 58.9 903.11C66.87 910.47 75.36 916.03 84.82 920.1C85.5 920.41 86.16 920.69 86.79 920.96C92.41 924.36 98.42 927.06 104.66 928.99L112.65 931.46L118.69 931.95C121.76 932.47 128.35 933.55 136.36 933.55C138.93 933.55 141.43 933.44 144.23 933.21L146.69 932.96C146.69 932.96 149.38 932.66 149.81 932.62L156.18 933.68L163.95 933.37C174.29 932.96 184.62 932.28 196.36 931.23C204.57 933.49 212.56 934.58 220.71 934.58C228.3 934.58 235.83 933.59 243.11 931.62C244.49 931.65 245.92 931.66 247.43 931.66C249.52 931.66 251.63 931.63 253.89 931.6C257.7 931.86 261.47 931.99 265.12 931.99C268.04 931.99 270.98 931.91 273.89 931.74C280.7 933.26 287.68 934.02 294.64 934.02H296.7C305.76 934.02 314.85 933.52 322.87 933.07H322.97C325.55 932.92 328.14 932.78 330.54 932.66L331.68 932.77C335.44 933.12 340.6 933.6 346.82 933.6C351.76 933.6 356.68 933.28 361.44 932.64C363.97 932.88 366.53 933 369.06 933C371.81 933 374.59 932.86 377.35 932.58C382.13 933.19 387.09 933.49 392.1 933.49C398.46 933.49 404.02 933.01 408.25 932.62C413.09 933.4 418.02 933.79 422.92 933.79C427.82 933.79 432.15 933.45 436.85 932.77C440.88 933.27 444.99 933.52 449.08 933.52C453.17 933.52 456.85 933.3 460.87 932.85C463.86 933.07 466.93 933.18 469.99 933.18C476.92 933.18 482.96 932.62 487.13 932.14C500.17 933.57 513.77 934.3 527.58 934.3C536.95 934.3 546.67 933.97 556.47 933.31C559.58 933.67 562.28 933.91 564.91 934.04L571.96 934.4L578.95 933.45C580.41 933.25 581.89 933.03 583.45 932.76C586.36 932.88 589.37 932.95 592.41 932.95C601.16 932.95 610.34 932.47 621.21 931.45C626.83 932.41 633.53 933.34 641.27 933.34C644.99 933.34 648.87 933.11 652.2 932.68C653.94 932.49 655.7 932.24 657.44 931.94C664.39 933.11 670.86 933.68 677.18 933.68C680.65 933.68 684.14 933.51 687.57 933.17C689.46 933.01 691.38 932.8 693.38 932.53C700.3 934.05 707 934.8 713.81 934.8C717.59 934.8 721.17 934.57 725.49 934.05C754.71 930.21 778.12 919.09 797.16 908.71L800.29 907L803.27 904.99C810.16 900.34 816.29 894.69 821.49 888.19C837.49 873.92 844.87 856.45 849.03 844.23C850.57 841.52 851.93 838.89 853.17 836.2L855.23 831.71L856.7 826.95C865.07 799.64 862.67 774.46 861.28 760.65C861.44 755.67 861.2 750.77 860.55 745.71L860.68 744.89L861.25 740.12L861.31 740.13Z" fill="white"/>
<path d="M713.87 900.16C705.93 900.16 699.34 898.46 695.01 897.14C692.24 897.68 688.64 898.36 684.42 898.68C682.05 898.93 679.64 899.05 677.23 899.05C669.2 899.05 662.51 897.7 657.63 896.71C657.43 896.67 657.23 896.63 657.03 896.59C654.56 897.27 651.64 897.9 648.34 898.26C646.06 898.55 643.7 898.7 641.31 898.7C634.77 898.7 628.89 897.63 624.16 896.78C623.65 896.69 623.15 896.59 622.66 896.5C613.76 897.43 603.07 898.31 592.46 898.31C588.63 898.31 584.88 898.2 581.24 897.95C581.12 897.98 580.99 898 580.86 898.02C578.79 898.42 576.64 898.81 574.29 899.13L570.54 899.64L566.76 899.45C563.92 899.31 561.28 899.01 558.67 898.68C558.28 898.63 557.89 898.58 557.49 898.53C547.29 899.29 537.26 899.67 527.65 899.67C513.66 899.67 500.05 898.86 487.1 897.26C482.03 897.92 476.38 898.55 470.06 898.55C466.69 898.55 463.43 898.37 460.26 898C456.99 898.5 453.3 898.88 449.16 898.88C445.02 898.88 440.71 898.47 436.58 897.64C433.09 898.39 428.45 899.15 423 899.15C418.67 899.15 414.34 898.66 410.13 897.69C408.86 897.77 407.38 897.91 405.93 898.05C402.12 898.41 397.38 898.85 392.18 898.85C386.98 898.85 382.3 898.43 377.72 897.57C375.14 898.04 372.26 898.36 369.15 898.36C366.4 898.36 363.66 898.12 360.96 897.63C356.5 898.52 351.85 898.96 346.91 898.96C342.31 898.96 338.26 898.58 335.01 898.28C333.62 898.15 332.25 897.97 330.91 897.96C327.9 898.1 324.5 898.29 321.11 898.48C313.13 898.93 304.87 899.38 296.8 899.38H294.8C287.17 899.38 281.16 897.98 277.1 896.74C273.2 897.15 269.23 897.35 265.22 897.35C261.89 897.35 258.46 897.21 254.97 896.93H254.82C252.35 896.98 249.92 897.02 247.53 897.02C244.84 897.02 241.77 896.98 238.43 896.78C238.31 896.83 237.06 897.29 237.06 897.29L236.04 897.61C231.14 899.15 226.02 899.94 220.81 899.94C212.08 899.94 204.98 897.76 200.22 896.09C185.91 897.47 174.23 898.3 162.66 898.75L158.48 898.92L154.36 898.23C152.47 897.91 151.47 897.87 150.74 897.87C149.05 897.87 146.52 898.14 143.02 898.51L140.94 898.72C139.45 898.84 137.94 898.9 136.44 898.9C131.04 898.9 126.52 898.12 123.82 897.65L123.17 897.54L119.44 897.24L115.15 895.91C109.55 894.18 105.43 891.69 103.04 890.08C101.92 889.65 100.58 889.11 99.09 888.42C89.92 884.55 83.76 878.9 79.85 874.88C69.65 870.02 61.59 861.79 55.79 850.28C44.01 837.28 41.77 822.6 40.6 814.97C40.44 813.89 40.32 812.77 40.04 811.66L39.34 809.54L38.98 807.66C36.35 795.01 36.9 783.01 37.39 772.42C37.67 766.34 37.96 760.05 37.39 756.43C35.79 747.56 36.45 740.15 36.85 735.68C36.86 735.55 36.88 735.42 36.88 735.29C35.97 730.71 34.64 723.96 35.04 716C35.34 707.51 36.39 700.24 37.33 693.82C37.84 690.33 38.29 687.22 38.57 684.31C38.5 683.55 38.44 682.81 38.37 682.1C37.79 675.6 37.02 666.88 39.37 656.18C39.3 655.01 39.07 652.98 38.9 651.43C38.68 649.46 38.47 647.48 38.3 645.52C36.26 634.37 37.37 624.84 38.21 617.67C38.26 617.24 38.32 616.81 38.36 616.37C38.31 616.12 38.26 615.88 38.22 615.63C37.39 611.38 36.25 605.57 36.14 598.67V597.48C36.26 587.82 36.44 578.18 36.61 568.55C37.08 542.74 37.51 518.33 37.11 493.43C36.38 482.05 37.18 471.21 37.88 461.6C38.7 450.43 39.47 439.88 37.49 432.37L36.67 429.26L36.36 426.06C34.53 406.94 35.97 387.02 37.36 367.75C38.03 358.52 38.66 349.73 38.87 341.79C37.15 336.56 34.52 327.18 36.7 315.5C36.9 314.37 37.14 313.22 37.41 312.05C36.57 303.3 36.73 294.79 36.86 287.09C36.9 284.95 36.95 282.87 36.95 280.86C33.97 265.76 36.03 252.35 37.65 242.16C37.64 241.69 37.61 241.22 37.59 240.75C37.42 236.21 37.16 229.46 38.89 221.59C38.42 218.85 37.94 215.37 37.85 211.32L37.8 209.37L37.94 207.43C38.12 205.16 37.83 201.12 37.57 197.21C37.1 190.56 36.54 182.55 37.33 173.82C36.11 152.98 38.37 127.17 43.08 109.51L45.32 101.11L50.88 94.3901C52.11 92.9101 53.69 90.3501 55.36 87.6401C60.36 79.5401 67.91 67.2901 82.07 57.4901L84.58 55.7501L87.32 54.4101C112.52 42.0901 141.17 36.3601 177.51 36.3601C185.22 36.3601 193.56 36.6101 203.03 37.1401L204.94 37.2501L209.3 37.9001C209.83 37.8301 210.38 37.7401 210.94 37.6601C214.5 37.1801 218.94 36.5701 224.1 36.5701C227.63 36.5701 231.08 36.8701 234.39 37.4601C235.95 37.0801 237.53 36.7201 239.11 36.4201L241.37 35.9901L243.66 35.8201C247.5 35.5301 251.31 35.4101 255.09 35.4101C261.73 35.4101 268.05 35.7901 273.62 36.1201C278.41 36.4101 282.94 36.6801 287 36.6801C290.31 36.6801 293.06 36.4901 295.4 36.1201L301.85 35.0801L308.3 36.1001C312.85 36.8201 316.76 37.8201 319.9 38.6301C323.73 37.5601 328.78 36.5601 334.64 36.5601L336.39 36.5901L342.66 36.8001L348.57 38.8801C348.79 38.9601 349.67 39.2101 351.94 39.2101C355.62 39.2101 360.55 38.5501 365.79 37.8601C373.05 36.9001 381.27 35.8101 390.31 35.8101C392.15 35.8101 393.98 35.8601 395.77 35.9501C398.77 35.6401 401.82 35.4901 404.99 35.4901C413.4 35.4901 421.05 36.5901 427.21 37.4701C430.79 37.9801 434.19 38.4701 436.7 38.5901C441.54 37.6701 446.3 37.2201 451.14 37.2201C456.92 37.2201 462.19 37.8701 466.81 38.6601C485.9 38.5601 505.16 37.4301 523.84 36.3301C525.7 36.1501 527.57 36.0601 529.43 36.0601C535.43 36.0601 541.3 36.9701 546.96 38.7901C547.35 38.7001 547.74 38.6101 548.13 38.5301C553.23 37.4301 560.21 35.9301 568.34 35.9301C569.63 35.9301 570.9 35.9701 572.19 36.0401L573.99 36.1901C576.1 36.4101 578.35 36.6701 580.7 36.9401C587.35 37.7001 594.88 38.5701 600.56 38.5701C603.07 38.5701 604.1 38.4001 604.14 38.3901C609.31 37.3601 613.75 36.9101 618.22 36.9101C623.03 36.9101 627.41 37.4501 631.36 38.1801C635.23 37.1801 640.56 36.1201 646.85 36.1201C648.94 36.1201 651.08 36.2301 653.29 36.4901C658.67 37.0101 665.45 37.2801 674.66 37.2801C679.05 37.2801 683.47 37.2201 687.89 37.1701C692.66 37.1101 697.45 37.0501 702.22 37.0501C714.02 37.0501 729.56 37.3801 745.23 39.9401L746.17 40.1101C758.7 42.4601 766.99 48.8501 771.75 53.2701C781.82 57.7901 790.64 64.3601 799.21 73.6901L801.83 76.5501L803.85 79.8501C815.7 99.2101 822.84 119.54 826.3 143.81L826.63 146.11L826.68 148.43C826.86 155.91 826.52 162.9 826.19 169.66C825.87 176.27 825.56 182.51 825.85 187.9L825.94 189.54L825.89 191.18C825.74 196.47 825.48 201.8 825.21 207.13C824.42 222.91 823.68 237.83 826.45 250.1L828.35 258.5L826.58 266.93C825.93 270.03 825.2 273.52 825.19 274.55L826.43 280.24L825.98 285.91C825.16 296.48 825.01 306.89 824.86 317.93C824.74 326.01 824.62 334.32 824.24 343.07C826.95 359.95 826.24 375.53 825.6 389.43L825.32 395.71L825.16 396.37C825.68 400.88 826.4 407.97 824.74 416.54C825.88 420.76 827.33 426.7 827.42 433.83C827.4 441.85 826.37 448.04 825.62 452.57C825.39 453.94 825.15 455.3 824.98 456.7C824.61 459.59 824.08 463.67 824.21 464.92L824.31 465.25C825.31 469.4 827.16 477.13 825.95 487.44L825.83 488.36C825.26 492.35 824.31 495.84 823.44 498.6C824.59 503.66 826.04 511.13 825.43 520.07C825.27 523.93 824.79 527.24 824.39 529.82C826.57 542.63 825.21 553.93 824.17 562.58C823.82 565.44 823.49 568.18 823.37 570.38C824.84 577.56 825.63 582.61 826.66 589.2L827.42 594.01L827.35 597.48C827.19 605.59 825.27 612.07 824.12 615.96C824.3 617 824.65 618.96 824.91 620.37C825.57 624 826.39 628.51 826.68 633.45C827.08 641.16 825.9 647.45 825.02 651.8C826.07 658.73 826.03 664.6 825.86 669.68C827.24 678.84 827.85 688.83 825.56 700.22C829.32 714.03 827.74 727.07 826.65 735.96L826.22 739.68L826.09 740.51C825.85 742.06 825.56 743.67 825.2 745.39C825.96 749.22 826.8 754.83 826.34 761.56C827.93 777.18 829.63 796.37 823.35 816.87L822.57 819.41L821.46 821.83C819.94 825.12 818.39 827.73 817.25 829.63L817.09 829.9L816.61 831.33C814.06 838.98 809.04 853.99 795.96 864.3C793.2 868.21 789.27 872.57 783.68 876.35L782.08 877.43L780.38 878.36C764.19 887.18 744.48 896.61 720.98 899.7C718.27 900.03 716.06 900.15 713.89 900.15L713.87 900.16Z" fill="#27004B"/>
<path d="M201.6 77.1899C210.41 79.9499 221.13 74.9699 228.46 77.0999C234.64 79.5899 240.55 76.8499 246.68 75.6899C265.53 74.2699 283.37 78.5699 301.88 75.5799C308.76 76.6699 315.25 79.3999 322.24 79.5099C326.7 79.2399 330.25 76.3899 334.99 76.5499C355.21 83.6699 376.44 73.8899 396.87 76.1299C411.89 73.5299 426.61 79.5699 441.56 78.4699C449.21 76.5099 454.91 77.0399 463.1 78.6599C484.63 78.6899 505.6 77.4699 527.23 76.1899C530.41 75.7799 533.56 76.2699 536.46 77.5899C547.08 82.4799 558.94 75.3099 569.76 75.9599C582.38 77.2799 600.49 80.0999 612.61 77.4899C618.1 76.3999 621.93 76.8799 628.23 78.4299C635.85 80.5299 640.88 75.3199 648.66 76.2099C677.9 79.0899 709.39 74.6099 738.64 79.3899C744.79 80.5399 746.57 87.4099 753 88.8299C759.37 91.2299 764.38 95.2099 769.3 100.57C778.99 116.4 783.8 131.91 786.3 149.4C786.62 162.69 784.77 176.45 785.52 190.06C784.88 212.87 781.96 236.32 787.05 258.82C785.26 267.33 783.78 273.98 785.72 282.85C784.07 304.22 784.88 323.95 783.68 345.58C786.69 360.49 785.82 375.06 785.16 389.86C783.08 398.01 787.24 404.12 784.23 411.88C782.04 419.72 786.94 427.14 787.04 434.34C787.02 440.66 785.57 446.13 784.87 452.03C783.99 458.75 783.16 465.39 784.55 472.4C785.24 475.72 786.33 478.61 785.84 482.81C785.19 487.38 782.17 492.71 782.36 497.27C782.31 503.57 785.8 510.12 785.11 517.87C784.99 522.74 783.43 527.64 783.68 532.47C787.69 546.49 782.37 560.12 783.01 574.51C784.95 583.51 785.69 588.45 786.99 596.7C786.88 602.09 784.07 606.85 783.75 612.33C783.12 620.64 785.99 629.11 786.37 635.75C786.66 641.34 784.1 647.24 784.13 653.19C785.99 660.11 785.62 664.93 785.36 672.18C786.76 680.09 787.52 687.05 785.31 695.14C784.35 699.86 784.95 704.67 786.16 709.27C788.8 716.94 787 726.89 786.16 734.55C785.85 736.62 785.32 738.9 784.83 740.87C782.8 748.62 787.4 753.52 785.73 761.22C787.19 775.76 789.14 790.82 784.71 805.27C782.96 809.06 779.97 812.56 778.81 817.2C775.86 825.94 773.88 833.08 767.21 834.64C764.18 836.66 764.49 840.93 760.9 843.36C746.58 851.16 732 857.94 715.66 860.09C709.45 860.84 704.15 857.37 699.51 856.99C693.15 855.88 686.88 858.52 680.73 858.87C670.64 860.14 661.79 855.26 651.92 856.15C649.08 856.99 646.5 858.35 643.56 858.58C638.32 859.45 629.13 856.55 622.95 856.27C610.55 857.67 596.1 858.95 583.59 858.06C577.92 857.38 574.18 858.82 568.82 859.55C564.29 859.32 560.61 858.31 555.92 858.58C533.01 860.36 509.78 860.21 487.15 856.95C477.87 858.13 469.04 859.72 460.04 857.42C452.86 858.8 447.7 860.1 440.15 857.17C432.61 855.79 426.91 860.87 418.62 858.63C417.29 858.3 415.69 858.03 414.36 857.74C402.67 857.07 389.86 861.67 378.68 856.18C375.26 855.22 371.54 859.58 367.3 858.11C363.59 857.39 359.97 856.57 356.3 857.55C347.61 860.73 338.1 857.71 329.43 858.05C317.81 858.57 305.72 859.54 295.13 859.43C287.7 859.54 286.1 856.14 278.06 856.27C271.12 857.55 263.99 857.7 256.39 856.96C247.93 857.09 239.96 857.41 232.43 855.85C228.59 855.32 226.96 858.36 223.75 859.56C216.77 861.76 209.3 854.93 201.75 855.79C187.9 857.21 175 858.29 161.04 858.84C151.78 857.3 146.43 857.98 137.6 858.92C134.06 859.21 130.29 858.05 127.21 857.8C125.34 857.22 125.17 856.01 119.93 853.76C118.55 853.12 116.87 852.65 115.55 851.93C109.04 849.59 106.01 841.85 99.83 839.69C92.01 838.04 92.45 830.76 87.99 825.62C79.67 818.99 81.73 809.38 78.54 799.65C75.39 784.52 79.9 765.66 77.19 749.68C75.81 742.44 78.27 736.27 77.01 730.16C76.36 726.55 75.14 721.89 75.39 717.78C75.78 705.85 78.36 695.89 79.05 684.54C78.6 676.21 77.24 670.6 79.13 663.47C80.76 655.79 78.81 647.86 78.39 640.1C76.37 631.83 78.49 623.74 79.03 615.14C78.39 609.32 76.61 603.83 76.51 598.05C76.97 562.54 78.07 527.36 77.46 491.81C75.8 469.24 82.61 445.35 76.55 422.35C74.09 396.77 79.04 365.12 79.3 338.84C79.37 332.21 75.37 327.85 76.42 322.68C76.91 319.7 78.2 316.39 78.17 312.92C76.31 301.42 77.57 287.15 77.27 276.18C74.5 266.4 76.25 256.53 77.78 246.86C78.68 240.58 76.62 233.6 79.21 227.3C81.07 221.73 78.34 216.63 78.21 210.49C79.08 199.03 76.14 186.31 77.86 174.71C76.49 158.6 78.01 135.13 82.11 119.75C90.37 109.77 93.85 98.1299 105.2 90.2799C134.75 75.8299 168.81 75.3099 200.75 77.0799L201.61 77.2099L201.6 77.1899ZM138.54 105.6C139.12 105.14 135.39 102.02 136.03 105.6H138.54ZM177.06 113.88C177.33 112.64 176.69 112.18 175.8 111.4C174.91 112.18 174.28 112.64 174.54 113.88H177.05H177.06ZM131.85 132.1C131.76 132.01 129.43 132.01 129.34 132.1C129.25 132.19 129.25 134.5 129.34 134.58C129.43 134.67 131.76 134.67 131.85 134.58C131.94 134.49 131.94 132.18 131.85 132.1ZM443.31 144.53L441.64 142.87C441.42 144.62 441.55 144.74 443.31 144.53ZM434.93 178.49C434.01 177.58 432.34 179.24 433.26 180.15C434.18 181.06 435.85 179.4 434.93 178.49ZM340.74 243.93C340.2 243.93 340.2 244.76 340.74 244.76C341.28 244.76 341.28 243.93 340.74 243.93ZM444.98 298.59C445.51 297.96 444.71 296.27 444.14 296.93C443.61 297.56 444.41 299.25 444.98 298.59ZM115.1 312.68C115.63 312.05 114.83 310.36 114.26 311.02C113.73 311.65 114.53 313.34 115.1 312.68ZM545.45 313.5C545.36 313.41 543.03 313.41 542.94 313.5C542.85 313.59 542.85 315.9 542.94 315.98C543.03 316.07 545.36 316.07 545.45 315.98C545.54 315.89 545.54 313.58 545.45 313.5ZM614.11 316.82C614.64 316.19 613.84 314.5 613.27 315.16C612.74 315.79 613.54 317.48 614.11 316.82ZM566.38 319.3C565.46 318.39 563.79 320.05 564.71 320.96C565.63 321.87 567.3 320.21 566.38 319.3ZM489.35 357.4C488.71 356.87 487 357.67 487.68 358.23C488.32 358.76 490.03 357.96 489.35 357.4ZM90.82 376.45C91.29 375.98 90.6 373.42 89.56 373.14L87.47 374.38L88.31 376.45C88.99 376.35 90.66 376.61 90.82 376.45ZM472.61 396.33H470.94V398.81H472.61V396.33ZM494.38 413.73C493.12 413.47 492.66 414.1 491.87 414.97C492.66 415.85 493.12 416.48 494.38 416.21V413.73ZM256.6 433.61H254.09V435.27H256.6V433.61ZM737.18 504.84C737.69 505.34 740.08 504.65 740.53 503.6C740.08 502.55 737.69 501.86 737.18 502.36C737.09 502.45 737.09 504.76 737.18 504.84ZM330.28 516.44C331.03 514.78 329.15 510.95 327.35 511.47C324.43 512.31 327.02 517.45 330.28 516.44ZM342.83 511.47H340.32V511.88C341.73 513.62 343.24 513.9 342.83 511.47ZM82.45 524.72H79.1C78.01 529.83 83.83 526.09 82.45 524.72ZM691.97 586.02C691.05 585.11 689.38 586.77 690.3 587.68C691.22 588.59 692.89 586.93 691.97 586.02ZM90.82 606.72H89.15V609.2H90.82V606.72ZM215.15 661.39C214.61 661.39 214.61 662.22 215.15 662.22C215.69 662.22 215.69 661.39 215.15 661.39ZM707.04 663.05C706.95 662.96 704.62 662.96 704.53 663.05C704.44 663.14 704.44 665.45 704.53 665.53C704.62 665.61 706.95 665.62 707.04 665.53C707.13 665.44 707.13 663.13 707.04 663.05ZM238.18 695.35C237.54 694.82 235.83 695.62 236.51 696.18C237.15 696.71 238.86 695.91 238.18 695.35ZM772.35 716.06C771.09 715.8 770.63 716.43 769.84 717.3C770.76 718.58 771.63 718.73 773.19 718.54L772.35 716.06ZM786.58 717.72C782.13 717.35 782.13 721.41 786.58 721.03V717.72ZM652.62 725.17C651.03 724.93 649.87 726.08 650.11 727.65H652.62V725.17ZM646.76 754.99V752.51H646.34L645.08 753.75L646.75 754.99H646.76ZM782.81 786.47C781.12 787.77 781.12 788.48 782.81 789.78C784.5 788.48 784.5 787.77 782.81 786.47ZM352.88 811.32H349.53C349.15 815.72 353.26 815.72 352.88 811.32Z" fill="white"/>
<path d="M76.46 1056.44C70.49 1053.08 65.89 1048.27 62.68 1042C59.47 1035.73 57.86 1028.39 57.86 1019.99C57.86 1011.59 59.47 1004.26 62.68 998.03C65.89 991.81 70.49 987 76.46 983.65C82.44 980.28 89.4 978.6 97.37 978.6C107.4 978.6 116.06 981.36 123.33 986.86C124.48 987.78 125.28 988.69 125.74 989.61C126.2 990.53 126.43 991.68 126.43 993.06C126.43 995.05 125.87 996.74 124.77 998.16C123.66 999.58 122.3 1000.28 120.69 1000.28C119.62 1000.28 118.68 1000.15 117.87 999.89C117.07 999.62 116.16 999.14 115.17 998.45C112.11 996.46 109.27 995.03 106.67 994.15C104.07 993.27 101.27 992.83 98.28 992.83C90.93 992.83 85.39 995.1 81.68 999.65C77.96 1004.2 76.11 1010.99 76.11 1020.01C76.11 1038.2 83.5 1047.3 98.28 1047.3C101.11 1047.3 103.79 1046.86 106.32 1045.98C108.85 1045.1 111.79 1043.67 115.16 1041.68C116.31 1040.99 117.27 1040.52 118.03 1040.24C118.79 1039.97 119.67 1039.85 120.67 1039.85C122.27 1039.85 123.63 1040.55 124.75 1041.97C125.86 1043.39 126.41 1045.09 126.41 1047.07C126.41 1048.45 126.16 1049.62 125.67 1050.57C125.17 1051.52 124.39 1052.42 123.31 1053.26C116.03 1058.76 107.38 1061.52 97.35 1061.52C89.39 1061.52 82.42 1059.84 76.44 1056.47L76.46 1056.44Z" fill="white"/>
<path d="M157.16 1056.39C151.22 1052.98 146.65 1048.17 143.43 1041.94C140.22 1035.71 138.61 1028.39 138.61 1019.99C138.61 1011.59 140.22 1004.26 143.43 998.03C146.64 991.81 151.22 987 157.16 983.65C163.09 980.28 170.08 978.6 178.12 978.6C186.16 978.6 193.15 980.28 199.09 983.65C205.03 987.01 209.6 991.81 212.82 998.03C216.03 1004.26 217.64 1011.59 217.64 1019.99C217.64 1028.39 216.03 1035.71 212.82 1041.94C209.6 1048.17 205.03 1052.99 199.09 1056.39C193.15 1059.79 186.17 1061.49 178.12 1061.49C170.07 1061.49 163.09 1059.79 157.16 1056.39ZM194.03 1040.5C197.9 1035.76 199.83 1028.92 199.83 1019.98C199.83 1011.04 197.92 1004.21 194.09 999.51C190.26 994.8 184.94 992.45 178.12 992.45C171.3 992.45 166 994.8 162.21 999.51C158.42 1004.21 156.52 1011.03 156.52 1019.98C156.52 1028.93 158.43 1035.76 162.26 1040.5C166.09 1045.25 171.37 1047.62 178.11 1047.62C184.85 1047.62 190.16 1045.25 194.02 1040.5H194.03Z" fill="white"/>
<path d="M238.09 1058.28C236.63 1056.82 235.91 1054.77 235.91 1052.09V987.88C235.91 985.2 236.71 983.06 238.32 981.45C239.92 979.85 242.11 979.05 244.87 979.05C247.63 979.05 249.81 979.85 251.42 981.45C253.03 983.05 253.83 985.2 253.83 987.88V1045.9H283.24C288.83 1045.9 291.62 1048.34 291.62 1053.23C291.62 1058.12 288.82 1060.46 283.24 1060.46H244.3C241.62 1060.46 239.55 1059.73 238.1 1058.28H238.09Z" fill="white"/>
<path d="M309.65 1058.28C308.19 1056.82 307.47 1054.77 307.47 1052.09V987.88C307.47 985.2 308.27 983.06 309.88 981.45C311.48 979.85 313.67 979.05 316.43 979.05C319.19 979.05 321.37 979.85 322.98 981.45C324.59 983.05 325.39 985.2 325.39 987.88V1045.9H354.8C360.39 1045.9 363.18 1048.34 363.18 1053.23C363.18 1058.12 360.38 1060.46 354.8 1060.46H315.86C313.18 1060.46 311.11 1059.73 309.66 1058.28H309.65Z" fill="white"/>
<path d="M381.22 1058.28C379.76 1056.82 379.04 1054.77 379.04 1052.09V987.99C379.04 985.32 379.76 983.25 381.22 981.8C382.67 980.35 384.74 979.62 387.42 979.62H428.09C433.76 979.62 436.59 981.91 436.59 986.5C436.59 991.09 433.75 993.49 428.09 993.49H396.5V1012.41H425.79C431.46 1012.41 434.29 1014.74 434.29 1019.4C434.29 1024.06 431.45 1026.28 425.79 1026.28H396.5V1046.58H428.09C433.76 1046.58 436.59 1048.91 436.59 1053.57C436.59 1058.23 433.75 1060.45 428.09 1060.45H387.42C384.74 1060.45 382.67 1059.72 381.22 1058.27V1058.28Z" fill="white"/>
<path d="M470.36 1056.44C464.39 1053.08 459.79 1048.27 456.58 1042C453.37 1035.73 451.76 1028.39 451.76 1019.99C451.76 1011.59 453.37 1004.26 456.58 998.03C459.79 991.81 464.39 987 470.36 983.65C476.34 980.28 483.3 978.6 491.27 978.6C501.3 978.6 509.96 981.36 517.23 986.86C518.38 987.78 519.18 988.69 519.64 989.61C520.1 990.53 520.33 991.68 520.33 993.06C520.33 995.05 519.77 996.74 518.67 998.16C517.56 999.58 516.2 1000.28 514.59 1000.28C513.52 1000.28 512.58 1000.15 511.77 999.89C510.97 999.62 510.06 999.14 509.07 998.45C506.01 996.46 503.17 995.03 500.57 994.15C497.97 993.27 495.17 992.83 492.18 992.83C484.83 992.83 479.29 995.1 475.58 999.65C471.86 1004.2 470.01 1010.99 470.01 1020.01C470.01 1038.2 477.4 1047.3 492.18 1047.3C495.01 1047.3 497.69 1046.86 500.22 1045.98C502.75 1045.1 505.69 1043.67 509.06 1041.68C510.21 1040.99 511.17 1040.52 511.93 1040.24C512.69 1039.97 513.57 1039.85 514.57 1039.85C516.17 1039.85 517.53 1040.55 518.65 1041.97C519.76 1043.39 520.31 1045.09 520.31 1047.07C520.31 1048.45 520.06 1049.62 519.57 1050.57C519.07 1051.52 518.29 1052.42 517.21 1053.26C509.93 1058.76 501.28 1061.52 491.25 1061.52C483.29 1061.52 476.32 1059.84 470.34 1056.47L470.36 1056.44Z" fill="white"/>
<path d="M558.86 1058.62C557.21 1057.02 556.39 1054.87 556.39 1052.19V994.17H537.78C532.11 994.17 529.28 991.73 529.28 986.84C529.28 981.95 532.11 979.61 537.78 979.61H592.92C598.59 979.61 601.42 982.02 601.42 986.84C601.42 991.66 598.58 994.17 592.92 994.17H574.31V1052.19C574.31 1054.87 573.5 1057.01 571.9 1058.62C570.29 1060.22 568.11 1061.02 565.35 1061.02C562.59 1061.02 560.5 1060.22 558.86 1058.62Z" fill="white"/>
<path d="M618.43 1058.73C616.82 1057.13 616.02 1054.95 616.02 1052.19V987.87C616.02 985.19 616.82 983.05 618.43 981.44C620.03 979.84 622.22 979.04 624.98 979.04C627.74 979.04 629.92 979.84 631.53 981.44C633.14 983.04 633.94 985.19 633.94 987.87V1052.19C633.94 1054.95 633.14 1057.12 631.53 1058.73C629.92 1060.33 627.74 1061.14 624.98 1061.14C622.22 1061.14 620.04 1060.33 618.43 1058.73Z" fill="white"/>
<path d="M718.48 980.13C719.78 979.33 721.24 978.93 722.84 978.93C725.14 978.93 727.21 979.7 729.05 981.22C730.89 982.75 731.81 984.63 731.81 986.84C731.81 987.98 731.54 989.13 731 990.28L699.99 1055.64C699.14 1057.4 697.88 1058.75 696.19 1059.71C694.51 1060.66 692.67 1061.15 690.68 1061.15C688.69 1061.15 686.85 1060.67 685.17 1059.71C683.49 1058.76 682.22 1057.41 681.38 1055.64L650.36 990.28C649.82 989.22 649.56 988.1 649.56 986.95C649.56 984.66 650.51 982.75 652.43 981.22C654.34 979.69 656.49 978.93 658.86 978.93C660.47 978.93 661.94 979.33 663.29 980.13C664.63 980.94 665.64 982.14 666.33 983.74L690.91 1037.41L715.49 983.74C716.18 982.14 717.17 980.93 718.48 980.13Z" fill="white"/>
<path d="M749.61 1058.28C748.15 1056.82 747.43 1054.77 747.43 1052.09V987.99C747.43 985.32 748.15 983.25 749.61 981.8C751.06 980.35 753.13 979.62 755.81 979.62H796.48C802.15 979.62 804.98 981.91 804.98 986.5C804.98 991.09 802.14 993.49 796.48 993.49H764.89V1012.41H794.18C799.85 1012.41 802.68 1014.74 802.68 1019.4C802.68 1024.06 799.84 1026.28 794.18 1026.28H764.89V1046.58H796.48C802.15 1046.58 804.98 1048.91 804.98 1053.57C804.98 1058.23 802.14 1060.45 796.48 1060.45H755.81C753.13 1060.45 751.06 1059.72 749.61 1058.27V1058.28Z" fill="white"/>
<path d="M287.92 439.91C338.34 439.91 382.03 418.65 410.32 384.17C415 378.46 413.44 369.88 407.16 366L383.99 351.69C378.83 348.5 372.16 349.6 368.23 354.22C349.28 376.53 320.66 390.3 287.91 390.3C229.26 390.3 184.4 345.45 184.4 285.93C184.4 226.41 229.25 181.57 287.91 181.57C320.66 181.57 349.28 195.34 368.23 217.65C372.16 222.27 378.83 223.37 383.99 220.18L407.16 205.87C413.44 201.99 415 193.41 410.32 187.7C382.03 153.21 338.33 131.96 287.91 131.96C199.06 131.96 131.78 198.38 131.78 285.92C131.78 373.46 199.06 439.9 287.91 439.9L287.92 439.91Z" fill="#27004B"/>
<path d="M712.38 137.14H691.24C683.02 137.14 676.37 143.8 676.37 152.02V246.06C676.37 254.28 669.71 260.93 661.5 260.93H545.48C537.26 260.93 530.61 254.27 530.61 246.06V152.02C530.61 143.8 523.95 137.14 515.73 137.14H494.16C485.94 137.14 479.29 143.8 479.29 152.02V419.85C479.29 428.07 485.95 434.72 494.16 434.72H515.73C523.95 434.72 530.61 428.06 530.61 419.85V324.11C530.61 315.89 537.27 309.24 545.48 309.24H661.5C669.72 309.24 676.37 315.9 676.37 324.11V419.85C676.37 428.07 683.03 434.72 691.24 434.72H712.38C720.6 434.72 727.25 428.06 727.25 419.85V152.02C727.25 143.8 720.59 137.14 712.38 137.14Z" fill="#27004B"/>
<path d="M713.51 494.17H689.68C682.09 494.17 675.94 500.32 675.94 507.91V676.18C675.94 711.04 653.61 738.56 621.3 745.59C575.93 755.46 533.61 718.62 533.61 672.19V507.91C533.61 500.32 527.46 494.17 519.87 494.17H496.47C488.88 494.17 482.73 500.32 482.73 507.91V677.03C482.73 745.62 535.34 796.94 604.78 796.94C674.22 796.94 727.26 745.62 727.26 677.03V507.91C727.26 500.32 721.11 494.17 713.52 494.17H713.51Z" fill="#27004B"/>
<path d="M258.1 493.48C261.85 492.61 265.93 491.75 268.45 490.62C250.78 492.29 236.38 497.03 220.99 505.19C231.11 499.37 242.17 495.34 253.38 492.03C225.28 499.73 195.95 516.63 176.48 542.03C169.22 550.73 158.56 556.67 154.53 573.47C173.98 536.11 209.99 508.53 249.98 496.88C251.07 495.75 254.35 494.29 258.11 493.47L258.1 493.48Z" fill="#27004B"/>
<path d="M302.63 491.32C306.64 491.73 310.71 492.14 314.89 492.57C311.16 491.92 306.92 491.59 302.63 491.32Z" fill="#27004B"/>
<path d="M158.23 593.37C149.63 612.34 148.85 635.16 150.91 655.54C149.26 636.61 151.44 617.88 156.74 600.47C157.29 598.09 157.79 595.74 158.22 593.36L158.23 593.37Z" fill="#27004B"/>
<path d="M203.57 536.29C189.52 545.98 177.04 560.36 169.04 576.72C177.64 560.34 189.8 546.3 203.57 536.29Z" fill="#27004B"/>
<path d="M252.74 739.52C258.61 741.98 263.48 744.69 268.78 746.4C269.83 746.29 271.91 745.42 273.96 745.84C278.13 746.48 282.2 746.9 286.17 747.16C271.33 745.92 257.3 741.91 244.82 735.72C245.87 736.59 246.85 737.49 247.72 738.43C249.8 738.61 251.72 739.42 252.74 739.52Z" fill="#27004B"/>
<path d="M153.22 710.54C154.46 712.94 155.75 715.33 157.17 717.75C155.81 715.37 154.5 712.96 153.22 710.54Z" fill="#27004B"/>
<path d="M414.87 565.11C403.11 545.59 387.55 529.1 370.31 516.32C353.07 503.42 334.08 494.58 315.6 488.16C319.31 489.99 323.83 491.8 328.7 493.61C333.52 495.61 338.59 498.1 343.64 500.35C348.48 503.14 353.34 505.79 357.51 508.69C361.57 511.81 365.2 514.72 367.84 517.52C366.15 516.95 364.37 516.55 362.66 516.07C364.71 518.98 373.17 526.28 376.86 530.62C374.61 529.44 372.53 527.57 370.59 525.42C371.897 526.807 373.203 528.193 374.51 529.58C366 523.34 353.17 514.35 341.54 509.37C335.74 507.02 330.48 505.33 326.91 504.56C323.25 504.1 321.32 504.44 321.98 506C323.31 509.08 332.79 512.81 343.83 518.98C354.95 524.94 367.63 533.6 376.16 543.04C367.15 536.98 357.37 530.94 347.18 525.21C336.74 520.07 325.65 515.52 314.72 514.15C319.54 516.53 322 518.37 328.7 521.3L335.06 523.91L341.11 527.15C345.22 529.11 348.94 531.77 352.69 534.27C360.41 538.8 367.52 543.17 371.65 550.57C372.2 551.13 372.79 551.62 373.26 552.25C374.47 553.24 375.95 553.87 377.08 555C381.78 560.35 381.23 562.65 387 568.05C386.78 568.3 386.39 568.23 385.94 568.01C387.9 569.51 389.15 573.14 391.36 574.87C390.91 575.32 390.45 575.77 390.32 576.49C398.36 591.28 403.43 607.62 404.69 624.41C404.96 629.41 405.42 634.31 405 639.19C405 641.26 405.13 643.37 405.01 645.5C404.75 647.62 404.48 649.77 404.2 651.96C403.97 654.14 405.14 656.29 405.23 657.37C403.13 662.86 401.43 668.3 398.63 674.4C398.59 675.47 398.11 677.61 397.92 679.76C396.93 680.71 395.99 681.75 395.09 682.85L392.57 688.54L389.5 693.91C387.63 697.59 385.2 700.89 382.83 704.21L382.96 704.28C380.96 707.85 377.66 711 374.71 714.57C371.43 717.83 367.99 721.14 364.5 724.07C361.42 726.63 358.41 728.98 355.67 731.17C352.69 732.73 349.91 734.57 346.84 735.91C347.55 736.11 347.98 736.6 348.4 737.09C349.2 736.22 350.3 735.44 351.41 734.7C349.72 736.16 348.23 737.55 347.09 738.87C343.68 739.18 340.39 740.42 336.62 741.2C332.3 742.91 328.03 744.73 323.49 745.78C319.07 747.25 314.46 747.9 309.87 748.71C309.17 749.3 309.92 749.75 310.07 750.17C305.93 750.54 301.66 749.84 297.55 749.77C293.84 749.83 290.11 749.5 286.39 749.43C282.67 749.08 278.96 748.34 275.24 747.86C273.43 747.98 271.66 747.76 269.81 747.93C268.97 747.09 267.84 746.34 266.49 745.67C263.74 745.09 261.14 744.02 258.52 742.99C251.33 740.66 238.73 735.24 226.99 726.99C225.83 726.74 224.88 726.57 224.53 726.17C221.47 723.39 218.34 720.9 215.71 718.11C205.58 709.38 198.46 699.02 194.41 693.32C192.01 689.86 191.76 694.91 193.11 700.5C193.73 703.38 194.38 706.38 194.9 708.8C195.53 711.04 195.8 712.61 195.11 712.53C183.4 708.35 174.57 690.96 165.58 666.01C163.54 658.92 165.25 671.48 164.48 672.02C163.48 671.14 162.64 669.87 161.83 668.37C160.66 663.13 159.12 657.94 158.59 652.57L158.77 654.86C159.23 659.58 160.54 664.04 161.69 668.1C160.9 666.59 160.14 664.88 159.3 663.07C157.47 659.31 156.21 655.04 154.93 651.39C156.08 672.13 162.24 692.93 173.39 710.77C184.4 728.68 199.67 743.91 217.44 754.95C204.32 746.21 193.5 734.76 185.8 722.45C189.68 727.95 194.44 732.73 199.01 737.71C204.05 742.18 208.93 746.93 214.57 750.74C225.51 758.77 237.73 765.38 250.89 769.63C279.21 778.09 309.73 776.67 337.27 767.41C335.13 768.8 332.52 770.01 329.67 771.21L337.01 768.78L344.11 765.73C348.92 763.87 353.39 761.31 357.91 758.86C360.55 757.17 362.92 755.06 365.28 753C364.38 753.9 362.58 755.69 361.13 757.13C388.43 740.75 409.9 715.43 421.04 686.77C420.23 689.09 420.17 690.36 420.17 691.6C420.74 690.04 421.5 688.54 421.97 686.92C423.18 682.54 424.38 678.2 425.53 674.04C424.66 678.34 423.26 682.63 421.97 686.92C421.5 688.7 420.74 690.38 420.15 692.11C420.1 693.26 419.85 694.47 418.55 696.41C417.22 700.46 415.29 704.06 413.51 707.37C411.76 710.7 410.03 713.66 408.02 715.83C394.05 732.84 380.18 749.09 362.68 757.75C358.65 759.76 359.33 758.64 361.11 757.13L357.9 758.86C354.91 760.88 351.95 763.09 348.72 764.83C345.45 766.5 342.1 768.08 338.65 769.54C334.71 770.88 330.67 771.91 326.7 773.08C322.71 774.19 318.58 774.67 314.55 775.47C312.99 775.79 311.43 776.19 309.83 776.29C310.62 776.16 311.43 776.1 312.2 775.88C291.3 778.67 270.19 776.19 250.87 769.63C239.06 766.55 228.01 761.08 217.42 754.96C235.9 767.62 258.27 774.94 280.49 777.99C265.41 778.44 248.78 775.04 233.32 768.29L240.8 771.66C243.36 772.63 245.99 773.43 248.59 774.32C253.76 776.25 259.16 777.38 264.56 778.52C268.6 779.81 272.77 780.39 276.61 781.16C280.45 781.91 283.98 782.81 286.93 783.28C276.02 782.5 267.01 781.17 258.47 779.83C276.67 784.55 296.16 785.95 315.64 783.3C294.67 786.62 271.01 786.73 251.04 778.7C253.47 779.24 255.95 779.52 258.47 779.84C225.51 771.25 196.39 751.8 176.78 725.32C180.75 733.35 188.28 741.96 197.33 749.12C206.11 756.7 216.38 762.57 224.73 768.69C191.46 753.16 164.28 721.7 152.36 685.21C140.08 648.64 142.5 608.38 156.07 573.86C144.78 597.6 138.84 623.88 139.75 650.91C139.36 645.84 139.28 639.99 139.06 634.2C138.71 647.63 139.82 660.62 142.93 673.66C138.31 654.86 136.65 635.33 137.97 615.95C139.85 601.31 139.17 597.58 137.17 599.1C135.28 600.62 132.34 607.59 131.28 613.77C122.04 675.8 147.49 737.83 197.25 770.41C208.94 777.89 221.84 783.17 234.73 787.85C247.9 791.78 261.28 795.01 274.93 795.69C282.52 797.01 291.83 797.11 300.27 796.96C308.72 796.33 316.34 795.46 320.65 794.02C366.39 780.01 405.9 744.93 424.53 698.03C433.37 677.34 437.54 653.88 435.7 630.67C433.8 607.47 426.45 584.78 414.85 565.19L414.87 565.11ZM144.99 681.17C144.57 679.74 144.18 678.31 143.8 676.87C144.18 678.3 144.56 679.73 144.99 681.17ZM197.26 761.98C170.59 742.65 151.14 713.71 142.3 684.87C145.02 693.81 148.86 702.31 153.21 710.54C146.5 697.54 142.44 684.67 140.09 669.42C142.03 674.62 144.79 686.05 147.17 688.25C146.51 686.31 145.94 684.33 145.35 682.37C145.97 684.38 146.63 686.4 147.36 688.42C147.3 688.39 147.24 688.31 147.17 688.25C161.05 729.05 191.56 764.5 230.85 782.93C213.15 779.87 206.9 768.61 197.25 761.98H197.26Z" fill="#27004B"/>
<path d="M210.92 709.85C212.45 711.48 213.99 713.12 215.5 714.74C218.35 718.17 221.95 720.65 224.88 723.17L224.95 723.04C217.42 716.98 210.87 709.93 205.12 702.33C205.68 703.07 206.25 703.82 206.84 704.57C208.17 706.3 209.54 708.07 210.9 709.84L210.92 709.85Z" fill="#27004B"/>
<path d="M205.09 702.28C199.81 694.38 194.69 686.25 191.68 677.2C192.59 680.7 192.81 684.26 193.33 687.37C196.84 690.52 200.51 696.22 205.09 702.28Z" fill="#27004B"/>
<path d="M205.13 702.34C205.13 702.34 205.1 702.3 205.09 702.29C205.09 702.29 205.09 702.29 205.09 702.3C205.1 702.31 205.11 702.33 205.12 702.34H205.13Z" fill="#27004B"/>
<path d="M215.49 533C203.29 539.93 191.99 550.01 182.88 562.15C176.01 571.78 171.13 582.66 167.14 593.66C172.2 581.33 178.74 569.73 186.95 559.49C195.29 549.36 204.91 540.48 215.48 533H215.49Z" fill="#27004B"/>
<path d="M184.22 651.48C184.66 651.35 185.19 650.65 185.69 651.34C185.5 647.41 184.92 643.49 185.31 639.52C184.44 643.49 184.45 647.47 184.22 651.48Z" fill="#27004B"/>
<path d="M190.47 610.01C189.6 611.21 188.91 612.28 188.1 613.05C188.23 614.85 188.24 616.59 188.13 618.3C188.95 615.55 189.39 612.68 190.47 610.01Z" fill="#27004B"/>
<path d="M210.09 573.16L214.4 567.79C215.86 566.02 217.58 564.49 219.12 562.82C217.74 564.05 216.35 565.29 214.93 566.55C213.62 567.93 212.39 569.44 211.09 570.91C210.67 571.2 210.43 572.08 210.1 573.15L210.09 573.16Z" fill="#27004B"/>
</g>
<defs>
<clipPath id="clip0_8_19">
<rect width="864.07" height="1061.49" fill="white"/>
</clipPath>
</defs>
</svg>
